<svg width="512" height="512" viewBox="0 0 512 512" fill="none" xmlns="http://www.w3.org/2000/svg">
<g clip-path="url(#clip0_630_41)">
<path d="M255.625 -0.312103C256.645 -0.312103 257.665 -0.312103 258.715 -0.302103C273.335 -0.252103 287.625 0.0578966 302.005 2.9979C302.995 3.1979 303.995 3.3879 305.025 3.5879C353.425 13.1479 397.615 35.5679 433.005 69.9979C434.005 70.9679 434.005 70.9679 435.025 71.9479C443.965 80.5679 452.365 89.2779 459.725 99.2779C461.025 101.028 462.355 102.748 463.695 104.468C471.555 114.678 477.945 125.638 484.005 136.998C484.665 138.238 484.665 138.238 485.345 139.508C496.855 161.408 504.525 185.698 509.005 209.998C509.165 210.798 509.325 211.598 509.485 212.428C514.975 240.508 514.735 273.988 509.005 301.998C508.805 302.998 508.615 303.998 508.415 305.018C500.295 346.108 482.925 383.208 457.005 415.998C456.185 417.038 455.375 418.078 454.535 419.148C441.875 434.708 427.325 449.298 411.005 460.998C409.655 461.988 408.305 462.978 406.965 463.968C371.795 489.588 331.165 505.458 288.005 510.998C287.335 511.088 286.665 511.178 285.975 511.268C280.265 511.958 274.625 512.178 268.865 512.208C267.925 512.208 266.975 512.218 265.995 512.228C226.855 512.448 226.855 512.448 210.005 508.998C208.505 508.708 208.505 508.708 206.975 508.418C165.895 500.298 128.795 482.928 96.005 456.998C94.965 456.188 93.925 455.378 92.855 454.538C77.285 441.868 62.725 427.308 51.005 410.998C50.135 409.828 49.275 408.658 48.405 407.488C33.265 386.868 21.185 364.258 13.005 339.998C12.585 338.778 12.585 338.778 12.165 337.528C8.92496 327.758 6.39496 317.878 4.24496 307.808C4.05496 306.888 3.85497 305.968 3.64497 305.008C0.354974 288.808 -0.375033 272.868 -0.315033 256.378C-0.315033 255.358 -0.305023 254.338 -0.305023 253.288C-0.255023 238.668 0.0549743 224.368 3.00497 209.998C3.29497 208.508 3.29498 208.508 3.58498 206.978C11.215 168.368 26.925 132.218 51.005 100.998C51.645 100.168 52.285 99.3279 52.945 98.4679C67.055 80.5179 83.405 63.3279 102.005 49.9979C102.545 49.6079 103.085 49.2179 103.645 48.8079C124.665 33.6579 147.425 21.2879 172.005 12.9979C173.225 12.5879 173.225 12.5879 174.465 12.1679C184.245 8.9279 194.125 6.3979 204.185 4.2479C205.115 4.0479 206.035 3.8479 206.985 3.6479C223.195 0.357897 239.135 -0.372103 255.625 -0.312103ZM221.065 18.6279C219.905 18.8079 218.745 18.9779 217.545 19.1679C171.555 26.5779 126.135 47.8679 93.005 80.9979C122.375 110.368 151.745 139.738 182.005 169.998C185.205 168.398 187.955 166.678 190.875 164.628C208.555 152.278 226.635 147.558 248.005 143.998C248.005 102.088 248.005 60.1779 248.005 16.9979C238.635 16.9979 230.195 17.2079 221.065 18.6279ZM264.005 16.9979C264.005 58.9079 264.005 100.818 264.005 143.998C271.255 145.318 278.515 146.638 286.005 147.998C301.535 152.708 315.635 159.318 328.005 169.998C331.185 168.588 333.325 166.918 335.785 164.458C336.525 163.718 337.255 162.988 338.015 162.228C338.815 161.428 339.615 160.618 340.445 159.788C341.285 158.938 342.135 158.088 343.015 157.218C345.335 154.888 347.655 152.558 349.975 150.228C352.395 147.798 354.825 145.358 357.255 142.928C361.855 138.328 366.445 133.718 371.035 129.108C376.265 123.858 381.495 118.618 386.725 113.368C397.495 102.588 408.245 91.7979 419.005 80.9979C385.035 46.7979 338.175 25.8579 290.935 18.6279C289.315 18.3779 289.315 18.3779 287.665 18.1179C279.565 16.9679 272.355 16.9979 264.005 16.9979ZM80.005 92.9979C77.765 95.5779 75.655 98.2479 73.515 100.898C71.985 102.778 70.445 104.648 68.855 106.478C50.875 127.458 37.815 152.938 29.005 178.998C28.725 179.808 28.445 180.608 28.165 181.438C20.895 203.048 17.005 225.228 17.005 247.998C58.905 247.998 100.815 247.998 144.005 247.998C145.315 240.738 146.635 233.478 148.005 225.998C152.705 210.468 159.315 196.368 170.005 183.998C168.595 180.818 166.925 178.668 164.465 176.218C163.735 175.478 162.995 174.738 162.245 173.978C161.035 172.778 161.035 172.778 159.805 171.558C158.955 170.708 158.105 169.858 157.235 168.988C154.915 166.668 152.585 164.348 150.265 162.028C147.825 159.598 145.405 157.178 142.975 154.748C138.895 150.668 134.815 146.598 130.735 142.528C126.005 137.818 121.285 133.098 116.565 128.388C112.035 123.848 107.495 119.318 102.955 114.788C101.025 112.858 99.085 110.918 97.155 108.988C94.465 106.298 91.765 103.608 89.065 100.928C88.265 100.118 87.455 99.3079 86.625 98.4779C85.895 97.7479 85.165 97.0279 84.405 96.2779C83.455 95.3179 83.455 95.3179 82.475 94.3479C81.215 92.8879 81.215 92.8879 80.005 92.9979ZM431.005 92.9979C401.625 122.368 372.255 151.738 342.005 181.998C343.605 185.208 345.325 187.958 347.375 190.868C359.725 208.558 364.435 226.638 368.005 247.998C409.905 247.998 451.815 247.998 495.005 247.998C495.005 239.958 494.995 232.598 493.875 224.748C493.745 223.828 493.615 222.898 493.475 221.938C487.245 180.678 471.025 141.708 445.005 108.998C444.215 108.008 443.425 107.028 442.625 106.008C438.905 101.398 435.205 97.1979 431.005 92.9979ZM192.005 184.998C191.125 185.808 190.255 186.608 189.355 187.438C172.995 203.138 161.255 225.678 160.765 248.678C160.255 278.888 168.575 303.078 189.875 325.188C207.275 342.118 230.785 351.558 255.005 351.998C279.295 351.578 302.065 343.668 320.005 326.998C320.875 326.198 321.745 325.388 322.645 324.568C339.005 308.868 350.745 286.328 351.235 263.328C351.745 233.118 343.425 208.918 322.125 186.808C286.775 152.428 228.185 151.378 192.005 184.998ZM17.005 263.998C16.945 276.028 16.945 276.028 18.125 287.808C18.255 288.688 18.385 289.568 18.525 290.468C25.065 331.608 40.995 370.318 67.005 402.998C67.785 403.988 68.575 404.978 69.375 405.998C73.095 410.608 76.795 414.798 81.005 418.998C110.375 389.628 139.745 360.258 170.005 329.998C168.395 326.798 166.675 324.048 164.625 321.128C152.275 303.438 147.565 285.368 144.005 263.998C102.095 263.998 60.185 263.998 17.005 263.998ZM368.005 263.998C366.685 271.258 365.365 278.518 364.005 285.998C358.885 301.748 352.765 315.288 342.005 327.998C343.405 331.168 345.055 333.308 347.505 335.748C348.235 336.478 348.955 337.208 349.705 337.958C350.505 338.748 351.305 339.538 352.125 340.348C353.385 341.608 353.385 341.608 354.665 342.888C356.965 345.188 359.265 347.478 361.565 349.768C363.975 352.168 366.385 354.568 368.785 356.968C373.335 361.518 377.885 366.058 382.445 370.588C387.635 375.758 392.815 380.928 398.005 386.098C408.665 396.738 419.325 407.378 430.005 417.998C444.595 411.088 456.395 388.528 464.005 374.998C464.415 374.258 464.835 373.508 465.275 372.738C472.415 359.908 478.265 346.898 483.005 332.998C483.275 332.198 483.555 331.388 483.835 330.558C491.105 308.958 495.005 286.768 495.005 263.998C453.095 263.998 411.185 263.998 368.005 263.998ZM180.365 343.388C179.385 344.378 179.385 344.378 178.385 345.378C177.255 346.498 177.255 346.498 176.105 347.648C175.275 348.478 174.455 349.308 173.605 350.168C172.735 351.038 171.865 351.908 170.975 352.798C168.585 355.188 166.205 357.578 163.825 359.968C161.345 362.468 158.845 364.958 156.355 367.458C151.645 372.178 146.925 376.908 142.215 381.638C136.855 387.028 131.485 392.408 126.115 397.778C115.075 408.848 104.035 419.918 93.005 430.998C102.465 440.538 112.755 448.648 124.005 455.998C124.975 456.648 125.955 457.288 126.965 457.948C156.855 476.938 189.985 488.898 225.005 493.998C226.055 494.158 226.055 494.158 227.135 494.318C234.205 495.258 240.685 494.998 248.005 494.998C248.005 453.088 248.005 411.178 248.005 367.998C240.745 366.678 233.475 365.358 226.005 363.998C210.995 359.128 197.815 353.478 185.675 343.248C183.355 341.518 182.575 341.508 180.365 343.388ZM322.875 345.998C305.425 359.518 285.575 364.078 264.005 367.998C264.005 409.908 264.005 451.818 264.005 494.998C273.385 494.998 281.855 494.788 291.005 493.378C292.745 493.108 292.745 493.108 294.525 492.838C305.615 491.048 316.295 488.358 327.005 484.998C328.225 484.628 328.225 484.628 329.485 484.238C361.625 474.268 394.385 456.328 418.005 431.998C416.595 428.838 414.945 426.698 412.505 424.258C411.785 423.528 411.065 422.798 410.315 422.048C409.525 421.258 408.725 420.468 407.915 419.648C407.075 418.808 406.235 417.978 405.375 417.108C403.085 414.808 400.795 412.518 398.495 410.228C396.095 407.828 393.695 405.428 391.305 403.028C387.275 398.998 383.245 394.978 379.215 390.958C374.555 386.298 369.895 381.638 365.235 376.978C361.245 372.968 357.245 368.968 353.245 364.978C350.855 362.588 348.465 360.198 346.075 357.808C343.415 355.138 340.755 352.488 338.085 349.828C337.295 349.038 336.505 348.238 335.685 347.418C334.965 346.698 334.235 345.978 333.495 345.238C332.865 344.608 332.235 343.978 331.585 343.328C328.045 340.358 325.895 343.568 322.875 345.998Z" fill="white"/>
</g>
<defs>
<clipPath id="clip0_630_41">
<rect width="512" height="512" fill="white"/>
</clipPath>
</defs>
</svg>
