<svg width="201" height="73" viewBox="0 0 201 73" fill="none" xmlns="http://www.w3.org/2000/svg">
<path d="M4.47901 68.3283C3.66179 68.3283 2.94934 68.1711 2.34166 67.8568C1.73398 67.532 1.21536 67.092 0.785792 66.5367L1.14726 66.1909C1.5873 66.7881 2.08497 67.2177 2.64026 67.4796C3.19555 67.7311 3.81895 67.8568 4.51044 67.8568C5.28576 67.8568 5.91963 67.6682 6.41206 67.2911C6.90449 66.9139 7.1507 66.39 7.1507 65.7195C7.1507 65.2166 7.04593 64.808 6.83639 64.4936C6.63732 64.1688 6.37015 63.9069 6.03488 63.7078C5.69961 63.5088 5.33291 63.3359 4.93477 63.1892C4.53664 63.0321 4.1385 62.8801 3.74037 62.7335C3.34223 62.5763 2.97553 62.3877 2.64026 62.1677C2.30499 61.9372 2.03258 61.6491 1.82304 61.3033C1.62397 60.9471 1.52444 60.4966 1.52444 59.9518C1.52444 59.4384 1.64492 58.9931 1.8859 58.6159C2.13735 58.2283 2.4831 57.9297 2.92314 57.7201C3.36319 57.5001 3.87657 57.3901 4.4633 57.3901C5.14432 57.3901 5.75199 57.521 6.28633 57.783C6.82067 58.0449 7.27643 58.4221 7.65361 58.9145L7.29215 59.2603C6.93592 58.8097 6.52731 58.464 6.06631 58.223C5.61579 57.982 5.08145 57.8616 4.4633 57.8616C3.75085 57.8616 3.16936 58.0449 2.71884 58.4116C2.26832 58.7783 2.04306 59.2865 2.04306 59.936C2.04306 60.4075 2.14259 60.7952 2.34166 61.099C2.5512 61.3924 2.82361 61.6386 3.15888 61.8377C3.49415 62.0263 3.86086 62.1939 4.25899 62.3406C4.65712 62.4768 5.05526 62.6235 5.45339 62.7806C5.85153 62.9378 6.21823 63.1316 6.5535 63.3621C6.88877 63.5926 7.15594 63.8912 7.35501 64.2579C7.56455 64.6141 7.66933 65.0699 7.66933 65.6252C7.66933 66.5157 7.3812 67.1915 6.80496 67.6525C6.23919 68.103 5.46387 68.3283 4.47901 68.3283ZM14.5692 68.3283C13.8672 68.3283 13.2333 68.1607 12.6676 67.8254C12.1123 67.4901 11.667 67.0344 11.3317 66.4581C11.0069 65.8819 10.8445 65.2375 10.8445 64.5251C10.8445 63.8231 11.0069 63.1892 11.3317 62.6235C11.667 62.0577 12.1123 61.6124 12.6676 61.2876C13.2333 60.9523 13.8672 60.7847 14.5692 60.7847C15.2607 60.7847 15.8841 60.9523 16.4394 61.2876C17.0051 61.6124 17.4504 62.0577 17.7752 62.6235C18.1105 63.1892 18.2781 63.8231 18.2781 64.5251C18.2781 65.248 18.1105 65.8976 17.7752 66.4738C17.4504 67.0396 17.0051 67.4901 16.4394 67.8254C15.8841 68.1607 15.2607 68.3283 14.5692 68.3283ZM14.5692 67.8725C15.1769 67.8725 15.7217 67.7259 16.2036 67.4325C16.6856 67.1391 17.068 66.741 17.3509 66.2381C17.6338 65.7247 17.7752 65.1485 17.7752 64.5094C17.7752 63.8912 17.6338 63.3359 17.3509 62.8435C17.068 62.351 16.6856 61.9634 16.2036 61.6805C15.7217 61.3871 15.1769 61.2405 14.5692 61.2405C13.9615 61.2405 13.4115 61.3871 12.919 61.6805C12.4371 61.9634 12.0547 62.351 11.7718 62.8435C11.4889 63.3359 11.3474 63.8964 11.3474 64.5251C11.3474 65.1642 11.4889 65.7352 11.7718 66.2381C12.0547 66.741 12.4371 67.1391 12.919 67.4325C13.4115 67.7259 13.9615 67.8725 14.5692 67.8725ZM23.9711 68.3283C23.5834 68.3283 23.2167 68.2759 22.871 68.1711C22.5357 68.0559 22.2318 67.904 21.9594 67.7154C21.687 67.5163 21.4461 67.2911 21.2365 67.0396L21.5665 66.6939C21.8809 67.1025 22.2423 67.4063 22.6509 67.6054C23.0595 67.794 23.5048 67.8883 23.9868 67.8883C24.584 67.8883 25.0607 67.7625 25.4169 67.5111C25.7731 67.2491 25.9513 66.8929 25.9513 66.4424C25.9513 66.0443 25.8465 65.73 25.6369 65.4995C25.4379 65.269 25.1759 65.0908 24.8511 64.9651C24.5264 64.8394 24.1806 64.7241 23.8139 64.6194C23.4577 64.5146 23.1172 64.3941 22.7924 64.2579C22.4676 64.1112 22.2004 63.9122 21.9909 63.6607C21.7918 63.3988 21.6923 63.0478 21.6923 62.6077C21.6923 62.2515 21.7866 61.9372 21.9752 61.6648C22.1637 61.3924 22.4309 61.1776 22.7767 61.0204C23.1224 60.8633 23.531 60.7847 24.0025 60.7847C24.5159 60.7847 24.9874 60.879 25.4169 61.0676C25.8465 61.2457 26.1818 61.5076 26.4227 61.8534L26.0927 62.1834C25.8832 61.89 25.5898 61.6595 25.2126 61.4919C24.8354 61.3138 24.4163 61.2247 23.9553 61.2247C23.3686 61.2247 22.9233 61.3557 22.6195 61.6176C22.3157 61.8796 22.1637 62.2044 22.1637 62.592C22.1637 62.9587 22.2633 63.2468 22.4623 63.4564C22.6719 63.6659 22.9391 63.8283 23.2638 63.9436C23.5886 64.0588 23.9292 64.1688 24.2854 64.2736C24.6521 64.3679 24.9978 64.4936 25.3226 64.6508C25.6474 64.7975 25.9093 65.007 26.1084 65.2794C26.318 65.5414 26.4227 65.9081 26.4227 66.3795C26.4227 66.9767 26.1975 67.4535 25.747 67.8097C25.3069 68.1554 24.7149 68.3283 23.9711 68.3283ZM32.5361 68.1711L29.2672 60.9419H29.8015L32.819 67.7311H32.4575L35.6164 60.9419H36.1507L32.7247 68.1711H32.5361ZM30.7445 71.2514L32.4732 67.6997L32.7247 68.1711L31.2631 71.2514H30.7445ZM42.1977 68.3283C41.4958 68.3283 40.8619 68.1607 40.2961 67.8254C39.7408 67.4901 39.2956 67.0344 38.9603 66.4581C38.6355 65.8819 38.4731 65.2375 38.4731 64.5251C38.4731 63.8231 38.6355 63.1892 38.9603 62.6235C39.2956 62.0577 39.7408 61.6124 40.2961 61.2876C40.8619 60.9523 41.4958 60.7847 42.1977 60.7847C42.8892 60.7847 43.5126 60.9523 44.0679 61.2876C44.6337 61.6124 45.079 62.0577 45.4038 62.6235C45.739 63.1892 45.9067 63.8231 45.9067 64.5251C45.9067 65.248 45.739 65.8976 45.4038 66.4738C45.079 67.0396 44.6337 67.4901 44.0679 67.8254C43.5126 68.1607 42.8892 68.3283 42.1977 68.3283ZM42.1977 67.8725C42.8054 67.8725 43.3502 67.7259 43.8322 67.4325C44.3141 67.1391 44.6966 66.741 44.9794 66.2381C45.2623 65.7247 45.4038 65.1485 45.4038 64.5094C45.4038 63.8912 45.2623 63.3359 44.9794 62.8435C44.6966 62.351 44.3141 61.9634 43.8322 61.6805C43.3502 61.3871 42.8054 61.2405 42.1977 61.2405C41.5901 61.2405 41.04 61.3871 40.5476 61.6805C40.0656 61.9634 39.6832 62.351 39.4003 62.8435C39.1174 63.3359 38.976 63.8964 38.976 64.5251C38.976 65.1642 39.1174 65.7352 39.4003 66.2381C39.6832 66.741 40.0656 67.1391 40.5476 67.4325C41.04 67.7259 41.5901 67.8725 42.1977 67.8725ZM49.5251 68.1711V57.2329H50.0123V68.1711H49.5251ZM57.358 68.3283C56.656 68.3283 56.0221 68.1607 55.4564 67.8254C54.9011 67.4901 54.4558 67.0344 54.1205 66.4581C53.7957 65.8819 53.6333 65.2375 53.6333 64.5251C53.6333 63.8231 53.7957 63.1892 54.1205 62.6235C54.4558 62.0577 54.9011 61.6124 55.4564 61.2876C56.0221 60.9523 56.656 60.7847 57.358 60.7847C58.0495 60.7847 58.6729 60.9523 59.2282 61.2876C59.7939 61.6124 60.2392 62.0577 60.564 62.6235C60.8993 63.1892 61.0669 63.8231 61.0669 64.5251C61.0669 65.248 60.8993 65.8976 60.564 66.4738C60.2392 67.0396 59.7939 67.4901 59.2282 67.8254C58.6729 68.1607 58.0495 68.3283 57.358 68.3283ZM57.358 67.8725C57.9657 67.8725 58.5105 67.7259 58.9924 67.4325C59.4744 67.1391 59.8568 66.741 60.1397 66.2381C60.4226 65.7247 60.564 65.1485 60.564 64.5094C60.564 63.8912 60.4226 63.3359 60.1397 62.8435C59.8568 62.351 59.4744 61.9634 58.9924 61.6805C58.5105 61.3871 57.9657 61.2405 57.358 61.2405C56.7503 61.2405 56.2003 61.3871 55.7078 61.6805C55.2259 61.9634 54.8435 62.351 54.5606 62.8435C54.2777 63.3359 54.1362 63.8964 54.1362 64.5251C54.1362 65.1642 54.2777 65.7352 54.5606 66.2381C54.8435 66.741 55.2259 67.1391 55.7078 67.4325C56.2003 67.7259 56.7503 67.8725 57.358 67.8725ZM67.6557 71.4086C66.9642 71.4086 66.3355 71.2776 65.7698 71.0157C65.204 70.7538 64.7482 70.3766 64.4025 69.8842L64.7011 69.5856C64.984 69.9942 65.3821 70.3242 65.8955 70.5757C66.4089 70.8271 67.0008 70.9528 67.6714 70.9528C68.6772 70.9528 69.4735 70.6752 70.0602 70.1199C70.6574 69.5751 70.956 68.8364 70.956 67.904V66.0652L71.0974 64.3679L70.956 62.7177V60.9419H71.4432V67.904C71.4432 68.6059 71.286 69.2189 70.9717 69.7427C70.6574 70.2666 70.2121 70.6752 69.6359 70.9686C69.0701 71.2619 68.41 71.4086 67.6557 71.4086ZM67.8914 68.1711C67.1894 68.1711 66.5608 68.014 66.0055 67.6997C65.4607 67.3749 65.0259 66.9348 64.7011 66.3795C64.3868 65.8242 64.2296 65.1904 64.2296 64.4779C64.2296 63.7759 64.3868 63.1473 64.7011 62.592C65.0154 62.0367 65.445 61.5967 65.9898 61.2719C66.5451 60.9471 67.1685 60.7847 67.86 60.7847C68.4153 60.7847 68.9182 60.8895 69.3687 61.099C69.8297 61.2981 70.2121 61.5862 70.5159 61.9634C70.8303 62.3406 71.045 62.7911 71.1603 63.315V65.6566C71.0346 66.17 70.8145 66.6153 70.5002 66.9925C70.1964 67.3696 69.8192 67.663 69.3687 67.8725C68.9286 68.0716 68.4362 68.1711 67.8914 68.1711ZM67.9543 67.7154C68.5515 67.7154 69.0753 67.5844 69.5259 67.3225C69.9868 67.0501 70.3431 66.6729 70.5945 66.1909C70.846 65.6985 70.9717 65.1275 70.9717 64.4779C70.9717 63.8388 70.8407 63.2783 70.5788 62.7963C70.3274 62.3144 69.9711 61.9372 69.5101 61.6648C69.0596 61.3819 68.5305 61.2405 67.9228 61.2405C67.3047 61.2405 66.7546 61.3819 66.2727 61.6648C65.7907 61.9372 65.4135 62.3144 65.1411 62.7963C64.8687 63.2783 64.7325 63.8336 64.7325 64.4622C64.7325 65.0908 64.8687 65.6514 65.1411 66.1438C65.424 66.6362 65.8064 67.0239 66.2884 67.3068C66.7703 67.5792 67.3256 67.7154 67.9543 67.7154ZM80.7051 64.4465V63.975H85.4041V64.4465H80.7051ZM100.176 68.1711V57.5472H100.679V68.1711H100.176ZM100.459 68.1711V67.7154H107.012V68.1711H100.459ZM100.459 62.9378V62.4977H106.541V62.9378H100.459ZM100.459 58.003V57.5472H106.918V58.003H100.459ZM113.443 71.4086C112.752 71.4086 112.123 71.2776 111.557 71.0157C110.992 70.7538 110.536 70.3766 110.19 69.8842L110.489 69.5856C110.772 69.9942 111.17 70.3242 111.683 70.5757C112.197 70.8271 112.789 70.9528 113.459 70.9528C114.465 70.9528 115.261 70.6752 115.848 70.1199C116.445 69.5751 116.744 68.8364 116.744 67.904V66.0652L116.885 64.3679L116.744 62.7177V60.9419H117.231V67.904C117.231 68.6059 117.074 69.2189 116.759 69.7427C116.445 70.2666 116 70.6752 115.424 70.9686C114.858 71.2619 114.198 71.4086 113.443 71.4086ZM113.679 68.1711C112.977 68.1711 112.349 68.014 111.793 67.6997C111.248 67.3749 110.814 66.9348 110.489 66.3795C110.174 65.8242 110.017 65.1904 110.017 64.4779C110.017 63.7759 110.174 63.1473 110.489 62.592C110.803 62.0367 111.233 61.5967 111.777 61.2719C112.333 60.9471 112.956 60.7847 113.648 60.7847C114.203 60.7847 114.706 60.8895 115.156 61.099C115.617 61.2981 116 61.5862 116.304 61.9634C116.618 62.3406 116.833 62.7911 116.948 63.315V65.6566C116.822 66.17 116.602 66.6153 116.288 66.9925C115.984 67.3696 115.607 67.663 115.156 67.8725C114.716 68.0716 114.224 68.1711 113.679 68.1711ZM113.742 67.7154C114.339 67.7154 114.863 67.5844 115.314 67.3225C115.775 67.0501 116.131 66.6729 116.382 66.1909C116.634 65.6985 116.759 65.1275 116.759 64.4779C116.759 63.8388 116.628 63.2783 116.367 62.7963C116.115 62.3144 115.759 61.9372 115.298 61.6648C114.847 61.3819 114.318 61.2405 113.711 61.2405C113.092 61.2405 112.542 61.3819 112.06 61.6648C111.578 61.9372 111.201 62.3144 110.929 62.7963C110.656 63.2783 110.52 63.8336 110.52 64.4622C110.52 65.0908 110.656 65.6514 110.929 66.1438C111.212 66.6362 111.594 67.0239 112.076 67.3068C112.558 67.5792 113.113 67.7154 113.742 67.7154ZM116.382 57.6415C116.382 58.0921 116.277 58.5007 116.068 58.8674C115.869 59.2341 115.591 59.5222 115.235 59.7317C114.889 59.9413 114.486 60.0461 114.025 60.0461C113.553 60.0461 113.134 59.9413 112.768 59.7317C112.401 59.5222 112.113 59.2341 111.903 58.8674C111.704 58.5007 111.605 58.0921 111.605 57.6415H112.06C112.06 58.2178 112.238 58.6945 112.595 59.0717C112.961 59.4489 113.449 59.6374 114.056 59.6374C114.402 59.6374 114.716 59.5536 114.999 59.386C115.293 59.2079 115.523 58.9669 115.691 58.6631C115.858 58.3592 115.942 58.0187 115.942 57.6415H116.382ZM121.299 68.1711V60.9419H121.786V68.1711H121.299ZM121.535 59.1345C121.399 59.1345 121.283 59.0822 121.189 58.9774C121.095 58.8726 121.048 58.7521 121.048 58.6159C121.048 58.4692 121.095 58.3487 121.189 58.2545C121.283 58.1602 121.399 58.113 121.535 58.113C121.682 58.113 121.802 58.1602 121.896 58.2545C122.001 58.3487 122.054 58.4692 122.054 58.6159C122.054 58.7521 122.001 58.8726 121.896 58.9774C121.802 59.0822 121.682 59.1345 121.535 59.1345ZM127.041 68.1711V57.8616H127.529V68.1711H127.041ZM125.124 61.3662V60.9419H129.43V61.3662H125.124ZM132.745 68.1711V60.9419H133.233V68.1711H132.745ZM132.981 59.1345C132.845 59.1345 132.73 59.0822 132.635 58.9774C132.541 58.8726 132.494 58.7521 132.494 58.6159C132.494 58.4692 132.541 58.3487 132.635 58.2545C132.73 58.1602 132.845 58.113 132.981 58.113C133.128 58.113 133.248 58.1602 133.343 58.2545C133.447 58.3487 133.5 58.4692 133.5 58.6159C133.5 58.7521 133.447 58.8726 133.343 58.9774C133.248 59.0822 133.128 59.1345 132.981 59.1345ZM137.34 68.1711V60.9419H137.828V68.1711H137.34ZM142.495 68.1711V63.6136C142.495 62.9011 142.286 62.3249 141.867 61.8848C141.447 61.4448 140.908 61.2247 140.248 61.2247C139.808 61.2247 139.404 61.3243 139.038 61.5233C138.671 61.7224 138.378 62.0001 138.158 62.3563C137.938 62.702 137.828 63.1106 137.828 63.5821L137.498 63.5664C137.498 63.0111 137.618 62.5239 137.859 62.1048C138.11 61.6857 138.446 61.3609 138.865 61.1305C139.294 60.9 139.771 60.7847 140.295 60.7847C140.808 60.7847 141.264 60.9 141.662 61.1305C142.071 61.3609 142.39 61.6857 142.621 62.1048C142.862 62.5239 142.982 63.0163 142.982 63.5821V68.1711H142.495ZM147.65 68.1711V63.6136C147.65 62.9011 147.44 62.3249 147.021 61.8848C146.602 61.4448 146.063 61.2247 145.403 61.2247C144.963 61.2247 144.559 61.3243 144.192 61.5233C143.826 61.7224 143.532 62.0001 143.312 62.3563C143.092 62.702 142.982 63.1106 142.982 63.5821L142.652 63.5664C142.652 63.0006 142.778 62.5134 143.03 62.1048C143.281 61.6857 143.616 61.3609 144.035 61.1305C144.465 60.9 144.936 60.7847 145.45 60.7847C145.963 60.7847 146.419 60.9 146.817 61.1305C147.226 61.3609 147.545 61.691 147.776 62.1205C148.017 62.5396 148.137 63.0321 148.137 63.5978V68.1711H147.65ZM164.613 68.1711L157.887 62.6392L164.472 57.5472H165.242L158.437 62.7963V62.4663L165.399 68.1711H164.613ZM157.557 68.1711V57.5472H158.06V68.1711H157.557ZM171.276 68.3283C170.574 68.3283 169.94 68.1607 169.375 67.8254C168.819 67.4901 168.374 67.0344 168.039 66.4581C167.714 65.8819 167.552 65.2375 167.552 64.5251C167.552 63.8231 167.714 63.1892 168.039 62.6235C168.374 62.0577 168.819 61.6124 169.375 61.2876C169.94 60.9523 170.574 60.7847 171.276 60.7847C171.968 60.7847 172.591 60.9523 173.146 61.2876C173.712 61.6124 174.158 62.0577 174.482 62.6235C174.818 63.1892 174.985 63.8231 174.985 64.5251C174.985 65.248 174.818 65.8976 174.482 66.4738C174.158 67.0396 173.712 67.4901 173.146 67.8254C172.591 68.1607 171.968 68.3283 171.276 68.3283ZM171.276 67.8725C171.884 67.8725 172.429 67.7259 172.911 67.4325C173.393 67.1391 173.775 66.741 174.058 66.2381C174.341 65.7247 174.482 65.1485 174.482 64.5094C174.482 63.8912 174.341 63.3359 174.058 62.8435C173.775 62.351 173.393 61.9634 172.911 61.6805C172.429 61.3871 171.884 61.2405 171.276 61.2405C170.669 61.2405 170.119 61.3871 169.626 61.6805C169.144 61.9634 168.762 62.351 168.479 62.8435C168.196 63.3359 168.055 63.8964 168.055 64.5251C168.055 65.1642 168.196 65.7352 168.479 66.2381C168.762 66.741 169.144 67.1391 169.626 67.4325C170.119 67.7259 170.669 67.8725 171.276 67.8725ZM181.857 68.3283C181.155 68.3283 180.521 68.1607 179.955 67.8254C179.4 67.4901 178.955 67.0344 178.619 66.4581C178.295 65.8819 178.132 65.2375 178.132 64.5251C178.132 63.8231 178.295 63.1892 178.619 62.6235C178.955 62.0577 179.4 61.6124 179.955 61.2876C180.521 60.9523 181.155 60.7847 181.857 60.7847C182.381 60.7847 182.868 60.8842 183.318 61.0833C183.779 61.2719 184.172 61.5391 184.497 61.8848L184.167 62.2148C183.884 61.911 183.544 61.6753 183.146 61.5076C182.747 61.3295 182.318 61.2405 181.857 61.2405C181.249 61.2405 180.699 61.3871 180.207 61.6805C179.725 61.9634 179.342 62.351 179.059 62.8435C178.777 63.3359 178.635 63.8964 178.635 64.5251C178.635 65.1642 178.777 65.7352 179.059 66.2381C179.342 66.741 179.725 67.1391 180.207 67.4325C180.699 67.7259 181.249 67.8725 181.857 67.8725C182.328 67.8725 182.763 67.7887 183.161 67.6211C183.57 67.443 183.921 67.1968 184.214 66.8824L184.544 67.2125C184.209 67.5687 183.806 67.8463 183.334 68.0454C182.873 68.234 182.381 68.3283 181.857 68.3283ZM181.322 71.4086C181.019 71.4086 180.71 71.351 180.395 71.2357C180.091 71.131 179.819 70.979 179.578 70.78L179.987 70.4342C180.154 70.5914 180.353 70.7119 180.584 70.7957C180.814 70.89 181.061 70.9371 181.322 70.9371C181.731 70.9371 182.045 70.8638 182.265 70.7171C182.496 70.5704 182.611 70.3661 182.611 70.1042C182.611 69.8423 182.485 69.638 182.234 69.4913C181.993 69.3551 181.642 69.287 181.181 69.287H180.867L181.244 68.0454H181.794L181.464 69.1298L181.244 68.8626C181.862 68.8626 182.334 68.9727 182.658 69.1927C182.994 69.4127 183.161 69.7218 183.161 70.1199C183.161 70.5285 182.999 70.8428 182.674 71.0629C182.36 71.2934 181.909 71.4086 181.322 71.4086ZM190.722 68.3283C190.157 68.3283 189.648 68.1973 189.198 67.9354C188.758 67.663 188.412 67.2911 188.161 66.8196C187.909 66.3376 187.784 65.7823 187.784 65.1537V60.9419H188.271V65.138C188.271 65.6723 188.37 66.149 188.569 66.5681C188.779 66.9767 189.067 67.3015 189.434 67.5425C189.811 67.773 190.24 67.8883 190.722 67.8883C191.456 67.8883 192.048 67.6316 192.498 67.1182C192.949 66.6048 193.174 65.9447 193.174 65.138V60.9419H193.661V65.1537C193.661 65.7719 193.536 66.3219 193.284 66.8039C193.033 67.2858 192.687 67.663 192.247 67.9354C191.807 68.1973 191.299 68.3283 190.722 68.3283Z" fill="white"/>
<path d="M18.8539 50.8738C16.1954 50.8738 13.4012 50.6186 10.4715 50.108C7.59593 49.6401 5.23582 49.0657 3.39114 48.385L4.44912 42.0034C6.61933 43.067 9.03369 43.9392 11.6922 44.6199C14.3507 45.258 16.9821 45.5771 19.5864 45.5771C22.9502 45.5771 25.5816 45.0453 27.4805 43.9817C29.3794 42.8756 30.3289 41.2802 30.3289 39.1955C30.3289 37.7065 29.8677 36.4301 28.9454 35.3665C28.0773 34.3029 26.8023 33.367 25.1204 32.5586C23.4385 31.7078 21.0784 30.7505 18.0401 29.6869C14.4592 28.4106 11.6108 27.2406 9.49486 26.177C7.43316 25.1134 5.77837 23.7946 4.5305 22.2204C3.28263 20.6463 2.65869 18.6893 2.65869 16.3494C2.65869 13.9669 3.44539 11.8822 5.0188 10.0954C6.5922 8.26601 8.78954 6.86205 11.6108 5.88354C14.4864 4.90503 17.7417 4.41577 21.3768 4.41577C24.1438 4.41577 26.7481 4.64976 29.1895 5.11775C31.6853 5.58573 33.8012 6.16008 35.5374 6.84078L34.7236 12.8395C30.2204 10.7548 25.6358 9.7125 20.9699 9.7125C17.8231 9.7125 15.3544 10.223 13.564 11.2441C11.7736 12.2651 10.8784 13.8393 10.8784 15.9665C10.8784 17.413 11.3395 18.6255 12.2619 19.604C13.2385 20.54 14.5677 21.3908 16.2496 22.1566C17.9316 22.8799 20.4816 23.8584 23.8996 25.0922C28.9996 26.879 32.7161 28.8148 35.0491 30.8994C37.3821 32.9415 38.5486 35.5155 38.5486 38.6212C38.5486 42.4076 36.7853 45.4069 33.2587 47.6192C29.7321 49.789 24.9305 50.8738 18.8539 50.8738Z" fill="#FFC400"/>
<path d="M57.35 5.3092H64.7558V44.6837H86.4851V49.9804H57.35V5.3092Z" fill="white"/>
<path d="M125.951 50.8738C120.689 50.8738 116.104 49.9379 112.198 48.0659C108.291 46.1515 105.253 43.4499 103.083 39.9613C100.967 36.4301 99.9088 32.3247 99.9088 27.6448C99.9088 23.0075 100.994 18.9446 103.164 15.4559C105.389 11.9248 108.454 9.20198 112.36 7.28749C116.267 5.37301 120.689 4.41577 125.626 4.41577C129.966 4.41577 134.09 5.05393 137.996 6.33025L137.182 11.7546C133.71 10.3932 130.346 9.7125 127.091 9.7125C123.076 9.7125 119.631 10.4996 116.755 12.0737C113.934 13.6478 111.791 15.7963 110.326 18.5191C108.861 21.2419 108.128 24.2838 108.128 27.6448C108.128 31.0058 108.861 34.0477 110.326 36.7705C111.791 39.4933 113.934 41.6418 116.755 43.2159C119.631 44.79 123.103 45.5771 127.172 45.5771C130.699 45.5771 134.035 44.9389 137.182 43.6626L137.996 49.087C134.524 50.2782 130.509 50.8738 125.951 50.8738Z" fill="#FFC400"/>
<path d="M156.911 5.3092H165.293L187.836 37.983V5.3092H195.242V49.9804H188.324L164.316 15.4559V49.9804H156.911V5.3092Z" fill="white"/>
</svg>
