<svg width="155" height="56" viewBox="0 0 155 56" fill="none" xmlns="http://www.w3.org/2000/svg">
<path d="M3.44349 52.2303C2.8152 52.2303 2.26747 52.1095 1.80028 51.8678C1.33309 51.6181 0.934374 51.2798 0.604121 50.8529L0.882017 50.5871C1.22032 51.0462 1.60293 51.3765 2.02985 51.5779C2.45676 51.7712 2.93603 51.8678 3.46766 51.8678C4.06372 51.8678 4.55105 51.7229 4.92963 51.4329C5.30821 51.1429 5.4975 50.7402 5.4975 50.2246C5.4975 49.838 5.41695 49.5239 5.25585 49.2822C5.10281 49.0325 4.89741 48.8311 4.63965 48.6781C4.38189 48.525 4.09997 48.3921 3.79388 48.2794C3.48779 48.1585 3.1817 48.0417 2.87562 47.929C2.56953 47.8082 2.28761 47.6632 2.02985 47.494C1.77209 47.3168 1.56266 47.0953 1.40156 46.8295C1.24852 46.5556 1.172 46.2092 1.172 45.7904C1.172 45.3957 1.26463 45.0534 1.44989 44.7634C1.64321 44.4654 1.90902 44.2358 2.24733 44.0747C2.58564 43.9055 2.98033 43.821 3.43141 43.821C3.95498 43.821 4.42217 43.9216 4.83297 44.123C5.24377 44.3244 5.59416 44.6144 5.88414 44.9929L5.60624 45.2588C5.33238 44.9124 5.01823 44.6466 4.66382 44.4613C4.31745 44.2761 3.90665 44.1834 3.43141 44.1834C2.88367 44.1834 2.43662 44.3244 2.09026 44.6063C1.7439 44.8882 1.57072 45.2789 1.57072 45.7783C1.57072 46.1408 1.64724 46.4388 1.80028 46.6724C1.96138 46.8979 2.17081 47.0872 2.42857 47.2403C2.68633 47.3853 2.96825 47.5141 3.27434 47.6269C3.58042 47.7316 3.88651 47.8444 4.1926 47.9652C4.49869 48.086 4.78061 48.2351 5.03837 48.4123C5.29613 48.5895 5.50153 48.8191 5.65457 49.101C5.81567 49.3748 5.89622 49.7252 5.89622 50.1521C5.89622 50.8368 5.67471 51.3564 5.23169 51.7108C4.79672 52.0571 4.20066 52.2303 3.44349 52.2303ZM11.2009 52.2303C10.6612 52.2303 10.1739 52.1014 9.73891 51.8437C9.31199 51.5859 8.96966 51.2355 8.7119 50.7925C8.4622 50.3495 8.33734 49.8541 8.33734 49.3064C8.33734 48.7667 8.4622 48.2794 8.7119 47.8444C8.96966 47.4094 9.31199 47.0671 9.73891 46.8174C10.1739 46.5596 10.6612 46.4308 11.2009 46.4308C11.7325 46.4308 12.2118 46.5596 12.6387 46.8174C13.0737 47.0671 13.416 47.4094 13.6657 47.8444C13.9235 48.2794 14.0523 48.7667 14.0523 49.3064C14.0523 49.8622 13.9235 50.3616 13.6657 50.8046C13.416 51.2396 13.0737 51.5859 12.6387 51.8437C12.2118 52.1014 11.7325 52.2303 11.2009 52.2303ZM11.2009 51.8799C11.6681 51.8799 12.0869 51.7672 12.4575 51.5416C12.828 51.3161 13.122 51.01 13.3395 50.6234C13.557 50.2287 13.6657 49.7856 13.6657 49.2943C13.6657 48.8191 13.557 48.3921 13.3395 48.0136C13.122 47.635 12.828 47.3369 12.4575 47.1195C12.0869 46.8939 11.6681 46.7811 11.2009 46.7811C10.7337 46.7811 10.3108 46.8939 9.93222 47.1195C9.5617 47.3369 9.26769 47.635 9.05021 48.0136C8.83272 48.3921 8.72398 48.8231 8.72398 49.3064C8.72398 49.7977 8.83272 50.2367 9.05021 50.6234C9.26769 51.01 9.5617 51.3161 9.93222 51.5416C10.3108 51.7672 10.7337 51.8799 11.2009 51.8799ZM18.4291 52.2303C18.1311 52.2303 17.8491 52.19 17.5833 52.1095C17.3256 52.0209 17.092 51.9041 16.8825 51.7591C16.6731 51.6061 16.4879 51.4329 16.3268 51.2396L16.5805 50.9737C16.8221 51.2879 17.1 51.5215 17.4142 51.6745C17.7283 51.8195 18.0706 51.892 18.4412 51.892C18.9003 51.892 19.2668 51.7954 19.5407 51.602C19.8145 51.4007 19.9515 51.1268 19.9515 50.7804C19.9515 50.4743 19.8709 50.2327 19.7098 50.0555C19.5568 49.8783 19.3554 49.7413 19.1057 49.6447C18.856 49.548 18.5902 49.4594 18.3083 49.3789C18.0344 49.2983 17.7726 49.2057 17.5229 49.101C17.2732 48.9882 17.0678 48.8352 16.9067 48.6418C16.7537 48.4405 16.6771 48.1706 16.6771 47.8323C16.6771 47.5585 16.7496 47.3168 16.8946 47.1074C17.0396 46.8979 17.245 46.7328 17.5108 46.612C17.7766 46.4912 18.0908 46.4308 18.4533 46.4308C18.848 46.4308 19.2104 46.5033 19.5407 46.6482C19.8709 46.7852 20.1287 46.9865 20.314 47.2524L20.0602 47.5061C19.8991 47.2806 19.6736 47.1033 19.3836 46.9745C19.0936 46.8375 18.7714 46.7691 18.417 46.7691C17.9659 46.7691 17.6236 46.8698 17.39 47.0711C17.1564 47.2725 17.0396 47.5222 17.0396 47.8202C17.0396 48.1022 17.1161 48.3237 17.2692 48.4848C17.4303 48.6459 17.6357 48.7707 17.8854 48.8593C18.1351 48.9479 18.3969 49.0325 18.6707 49.1131C18.9527 49.1856 19.2185 49.2822 19.4682 49.403C19.7179 49.5158 19.9193 49.6769 20.0723 49.8863C20.2334 50.0877 20.314 50.3696 20.314 50.7321C20.314 51.1912 20.1408 51.5577 19.7944 51.8316C19.4561 52.0974 19.001 52.2303 18.4291 52.2303ZM25.0139 52.1095L22.5008 46.5516H22.9116L25.2314 51.7712H24.9535L27.3821 46.5516H27.7929L25.1589 52.1095H25.0139ZM23.6365 54.4777L24.9656 51.747L25.1589 52.1095L24.0352 54.4777H23.6365ZM32.4419 52.2303C31.9022 52.2303 31.4149 52.1014 30.9799 51.8437C30.553 51.5859 30.2107 51.2355 29.9529 50.7925C29.7032 50.3495 29.5783 49.8541 29.5783 49.3064C29.5783 48.7667 29.7032 48.2794 29.9529 47.8444C30.2107 47.4094 30.553 47.0671 30.9799 46.8174C31.4149 46.5596 31.9022 46.4308 32.4419 46.4308C32.9735 46.4308 33.4528 46.5596 33.8797 46.8174C34.3146 47.0671 34.657 47.4094 34.9067 47.8444C35.1644 48.2794 35.2933 48.7667 35.2933 49.3064C35.2933 49.8622 35.1644 50.3616 34.9067 50.8046C34.657 51.2396 34.3146 51.5859 33.8797 51.8437C33.4528 52.1014 32.9735 52.2303 32.4419 52.2303ZM32.4419 51.8799C32.9091 51.8799 33.3279 51.7672 33.6984 51.5416C34.069 51.3161 34.363 51.01 34.5805 50.6234C34.7979 50.2287 34.9067 49.7856 34.9067 49.2943C34.9067 48.8191 34.7979 48.3921 34.5805 48.0136C34.363 47.635 34.069 47.3369 33.6984 47.1195C33.3279 46.8939 32.9091 46.7811 32.4419 46.7811C31.9747 46.7811 31.5518 46.8939 31.1732 47.1195C30.8027 47.3369 30.5087 47.635 30.2912 48.0136C30.0737 48.3921 29.965 48.8231 29.965 49.3064C29.965 49.7977 30.0737 50.2367 30.2912 50.6234C30.5087 51.01 30.8027 51.3161 31.1732 51.5416C31.5518 51.7672 31.9747 51.8799 32.4419 51.8799ZM38.0752 52.1095V43.7001H38.4498V52.1095H38.0752ZM44.0972 52.2303C43.5575 52.2303 43.0702 52.1014 42.6352 51.8437C42.2083 51.5859 41.8659 51.2355 41.6082 50.7925C41.3585 50.3495 41.2336 49.8541 41.2336 49.3064C41.2336 48.7667 41.3585 48.2794 41.6082 47.8444C41.8659 47.4094 42.2083 47.0671 42.6352 46.8174C43.0702 46.5596 43.5575 46.4308 44.0972 46.4308C44.6288 46.4308 45.1081 46.5596 45.535 46.8174C45.9699 47.0671 46.3123 47.4094 46.562 47.8444C46.8197 48.2794 46.9486 48.7667 46.9486 49.3064C46.9486 49.8622 46.8197 50.3616 46.562 50.8046C46.3123 51.2396 45.9699 51.5859 45.535 51.8437C45.1081 52.1014 44.6288 52.2303 44.0972 52.2303ZM44.0972 51.8799C44.5644 51.8799 44.9832 51.7672 45.3537 51.5416C45.7243 51.3161 46.0183 51.01 46.2358 50.6234C46.4532 50.2287 46.562 49.7856 46.562 49.2943C46.562 48.8191 46.4532 48.3921 46.2358 48.0136C46.0183 47.635 45.7243 47.3369 45.3537 47.1195C44.9832 46.8939 44.5644 46.7811 44.0972 46.7811C43.63 46.7811 43.2071 46.8939 42.8285 47.1195C42.458 47.3369 42.164 47.635 41.9465 48.0136C41.729 48.3921 41.6203 48.8231 41.6203 49.3064C41.6203 49.7977 41.729 50.2367 41.9465 50.6234C42.164 51.01 42.458 51.3161 42.8285 51.5416C43.2071 51.7672 43.63 51.8799 44.0972 51.8799ZM52.0141 54.5985C51.4824 54.5985 50.9992 54.4978 50.5642 54.2964C50.1292 54.095 49.7788 53.8051 49.513 53.4265L49.7426 53.1969C49.9601 53.5111 50.2662 53.7648 50.6608 53.9581C51.0555 54.1514 51.5106 54.2481 52.0262 54.2481C52.7994 54.2481 53.4116 54.0346 53.8627 53.6077C54.3218 53.1889 54.5514 52.621 54.5514 51.9041V50.4905L54.6601 49.1856L54.5514 47.9169V46.5516H54.9259V51.9041C54.9259 52.4438 54.8051 52.915 54.5635 53.3177C54.3218 53.7205 53.9795 54.0346 53.5365 54.2602C53.1015 54.4857 52.594 54.5985 52.0141 54.5985ZM52.1953 52.1095C51.6556 52.1095 51.1723 51.9887 50.7454 51.747C50.3266 51.4973 49.9923 51.159 49.7426 50.7321C49.5009 50.3052 49.3801 49.8179 49.3801 49.2701C49.3801 48.7304 49.5009 48.2471 49.7426 47.8202C49.9842 47.3933 50.3145 47.055 50.7333 46.8053C51.1603 46.5556 51.6395 46.4308 52.1711 46.4308C52.5981 46.4308 52.9847 46.5113 53.3311 46.6724C53.6855 46.8255 53.9795 47.047 54.2131 47.3369C54.4547 47.6269 54.6199 47.9733 54.7085 48.376V50.1763C54.6118 50.571 54.4426 50.9133 54.201 51.2033C53.9674 51.4933 53.6774 51.7188 53.3311 51.8799C52.9928 52.033 52.6142 52.1095 52.1953 52.1095ZM52.2436 51.7591C52.7028 51.7591 53.1055 51.6584 53.4519 51.457C53.8063 51.2476 54.0802 50.9576 54.2735 50.5871C54.4668 50.2085 54.5635 49.7695 54.5635 49.2701C54.5635 48.7788 54.4628 48.3478 54.2614 47.9773C54.0681 47.6068 53.7942 47.3168 53.4398 47.1074C53.0934 46.8899 52.6867 46.7811 52.2195 46.7811C51.7442 46.7811 51.3214 46.8899 50.9508 47.1074C50.5803 47.3168 50.2903 47.6068 50.0809 47.9773C49.8715 48.3478 49.7667 48.7747 49.7667 49.258C49.7667 49.7413 49.8715 50.1723 50.0809 50.5509C50.2984 50.9294 50.5924 51.2275 50.9629 51.445C51.3334 51.6544 51.7603 51.7591 52.2436 51.7591ZM62.0465 49.246V48.8835H65.6592V49.246H62.0465ZM77.0157 52.1095V43.9418H77.4024V52.1095H77.0157ZM77.2332 52.1095V51.7591H82.2716V52.1095H77.2332ZM77.2332 48.0861V47.7477H81.9091V48.0861H77.2332ZM77.2332 44.2922V43.9418H82.1991V44.2922H77.2332ZM87.2159 54.5985C86.6843 54.5985 86.201 54.4978 85.766 54.2964C85.3311 54.095 84.9807 53.8051 84.7149 53.4265L84.9444 53.1969C85.1619 53.5111 85.468 53.7648 85.8627 53.9581C86.2574 54.1514 86.7125 54.2481 87.228 54.2481C88.0013 54.2481 88.6135 54.0346 89.0645 53.6077C89.5237 53.1889 89.7532 52.621 89.7532 51.9041V50.4905L89.862 49.1856L89.7532 47.9169V46.5516H90.1278V51.9041C90.1278 52.4438 90.007 52.915 89.7653 53.3177C89.5237 53.7205 89.1813 54.0346 88.7383 54.2602C88.3033 54.4857 87.7959 54.5985 87.2159 54.5985ZM87.3972 52.1095C86.8575 52.1095 86.3742 51.9887 85.9473 51.747C85.5284 51.4973 85.1941 51.159 84.9444 50.7321C84.7028 50.3052 84.582 49.8179 84.582 49.2701C84.582 48.7304 84.7028 48.2471 84.9444 47.8202C85.1861 47.3933 85.5163 47.055 85.9352 46.8053C86.3621 46.5556 86.8414 46.4308 87.373 46.4308C87.7999 46.4308 88.1866 46.5113 88.5329 46.6724C88.8873 46.8255 89.1813 47.047 89.4149 47.3369C89.6566 47.6269 89.8217 47.9733 89.9103 48.376V50.1763C89.8137 50.571 89.6445 50.9133 89.4028 51.2033C89.1693 51.4933 88.8793 51.7188 88.5329 51.8799C88.1946 52.033 87.816 52.1095 87.3972 52.1095ZM87.4455 51.7591C87.9046 51.7591 88.3074 51.6584 88.6537 51.457C89.0082 51.2476 89.282 50.9576 89.4753 50.5871C89.6687 50.2085 89.7653 49.7695 89.7653 49.2701C89.7653 48.7788 89.6646 48.3478 89.4633 47.9773C89.2699 47.6068 88.9961 47.3168 88.6417 47.1074C88.2953 46.8899 87.8885 46.7811 87.4213 46.7811C86.9461 46.7811 86.5232 46.8899 86.1527 47.1074C85.7822 47.3168 85.4922 47.6068 85.2827 47.9773C85.0733 48.3478 84.9686 48.7747 84.9686 49.258C84.9686 49.7413 85.0733 50.1723 85.2827 50.5509C85.5002 50.9294 85.7942 51.2275 86.1648 51.445C86.5353 51.6544 86.9622 51.7591 87.4455 51.7591ZM89.4753 44.0143C89.4753 44.3606 89.3948 44.6748 89.2337 44.9567C89.0807 45.2386 88.8672 45.4601 88.5933 45.6212C88.3275 45.7823 88.0174 45.8629 87.663 45.8629C87.3005 45.8629 86.9783 45.7823 86.6964 45.6212C86.4145 45.4601 86.193 45.2386 86.0319 44.9567C85.8788 44.6748 85.8023 44.3606 85.8023 44.0143H86.1527C86.1527 44.4573 86.2896 44.8238 86.5635 45.1138C86.8454 45.4038 87.22 45.5487 87.6871 45.5487C87.953 45.5487 88.1946 45.4843 88.4121 45.3554C88.6376 45.2185 88.8148 45.0332 88.9437 44.7996C89.0726 44.566 89.137 44.3043 89.137 44.0143H89.4753ZM93.2555 52.1095V46.5516H93.6301V52.1095H93.2555ZM93.4368 45.1621C93.3321 45.1621 93.2435 45.1218 93.171 45.0413C93.0985 44.9607 93.0622 44.8681 93.0622 44.7634C93.0622 44.6506 93.0985 44.558 93.171 44.4855C93.2435 44.413 93.3321 44.3767 93.4368 44.3767C93.5495 44.3767 93.6422 44.413 93.7147 44.4855C93.7952 44.558 93.8355 44.6506 93.8355 44.7634C93.8355 44.8681 93.7952 44.9607 93.7147 45.0413C93.6422 45.1218 93.5495 45.1621 93.4368 45.1621ZM97.6703 52.1095V44.1834H98.0448V52.1095H97.6703ZM96.1962 46.8778V46.5516H99.5068V46.8778H96.1962ZM102.055 52.1095V46.5516H102.43V52.1095H102.055ZM102.237 45.1621C102.132 45.1621 102.043 45.1218 101.971 45.0413C101.898 44.9607 101.862 44.8681 101.862 44.7634C101.862 44.6506 101.898 44.558 101.971 44.4855C102.043 44.413 102.132 44.3767 102.237 44.3767C102.349 44.3767 102.442 44.413 102.515 44.4855C102.595 44.558 102.635 44.6506 102.635 44.7634C102.635 44.8681 102.595 44.9607 102.515 45.0413C102.442 45.1218 102.349 45.1621 102.237 45.1621ZM105.588 52.1095V46.5516H105.963V52.1095H105.588ZM109.551 52.1095V48.6056C109.551 48.0579 109.39 47.6148 109.068 47.2765C108.746 46.9382 108.331 46.7691 107.823 46.7691C107.485 46.7691 107.175 46.8456 106.893 46.9986C106.611 47.1517 106.386 47.3651 106.216 47.639C106.047 47.9048 105.963 48.219 105.963 48.5814L105.709 48.5693C105.709 48.1424 105.802 47.7679 105.987 47.4457C106.18 47.1235 106.438 46.8738 106.76 46.6966C107.09 46.5194 107.457 46.4308 107.86 46.4308C108.254 46.4308 108.605 46.5194 108.911 46.6966C109.225 46.8738 109.471 47.1235 109.648 47.4457C109.833 47.7679 109.926 48.1465 109.926 48.5814V52.1095H109.551ZM113.514 52.1095V48.6056C113.514 48.0579 113.353 47.6148 113.031 47.2765C112.709 46.9382 112.294 46.7691 111.786 46.7691C111.448 46.7691 111.138 46.8456 110.856 46.9986C110.574 47.1517 110.349 47.3651 110.179 47.639C110.01 47.9048 109.926 48.219 109.926 48.5814L109.672 48.5693C109.672 48.1344 109.769 47.7598 109.962 47.4457C110.155 47.1235 110.413 46.8738 110.735 46.6966C111.065 46.5194 111.428 46.4308 111.823 46.4308C112.217 46.4308 112.568 46.5194 112.874 46.6966C113.188 46.8738 113.434 47.1275 113.611 47.4578C113.796 47.78 113.889 48.1585 113.889 48.5935V52.1095H113.514ZM126.556 52.1095L121.384 47.8565L126.447 43.9418H127.039L121.807 47.9773V47.7236L127.16 52.1095H126.556ZM121.131 52.1095V43.9418H121.517V52.1095H121.131ZM131.678 52.2303C131.139 52.2303 130.651 52.1014 130.216 51.8437C129.789 51.5859 129.447 51.2355 129.189 50.7925C128.94 50.3495 128.815 49.8541 128.815 49.3064C128.815 48.7667 128.94 48.2794 129.189 47.8444C129.447 47.4094 129.789 47.0671 130.216 46.8174C130.651 46.5596 131.139 46.4308 131.678 46.4308C132.21 46.4308 132.689 46.5596 133.116 46.8174C133.551 47.0671 133.893 47.4094 134.143 47.8444C134.401 48.2794 134.53 48.7667 134.53 49.3064C134.53 49.8622 134.401 50.3616 134.143 50.8046C133.893 51.2396 133.551 51.5859 133.116 51.8437C132.689 52.1014 132.21 52.2303 131.678 52.2303ZM131.678 51.8799C132.145 51.8799 132.564 51.7672 132.935 51.5416C133.305 51.3161 133.599 51.01 133.817 50.6234C134.034 50.2287 134.143 49.7856 134.143 49.2943C134.143 48.8191 134.034 48.3921 133.817 48.0136C133.599 47.635 133.305 47.3369 132.935 47.1195C132.564 46.8939 132.145 46.7811 131.678 46.7811C131.211 46.7811 130.788 46.8939 130.41 47.1195C130.039 47.3369 129.745 47.635 129.528 48.0136C129.31 48.3921 129.201 48.8231 129.201 49.3064C129.201 49.7977 129.31 50.2367 129.528 50.6234C129.745 51.01 130.039 51.3161 130.41 51.5416C130.788 51.7672 131.211 51.8799 131.678 51.8799ZM139.813 52.2303C139.273 52.2303 138.786 52.1014 138.351 51.8437C137.924 51.5859 137.581 51.2355 137.324 50.7925C137.074 50.3495 136.949 49.8541 136.949 49.3064C136.949 48.7667 137.074 48.2794 137.324 47.8444C137.581 47.4094 137.924 47.0671 138.351 46.8174C138.786 46.5596 139.273 46.4308 139.813 46.4308C140.215 46.4308 140.59 46.5073 140.936 46.6603C141.291 46.8053 141.593 47.0107 141.842 47.2765L141.589 47.5303C141.371 47.2967 141.109 47.1154 140.803 46.9865C140.497 46.8496 140.167 46.7811 139.813 46.7811C139.345 46.7811 138.923 46.8939 138.544 47.1195C138.173 47.3369 137.879 47.635 137.662 48.0136C137.444 48.3921 137.336 48.8231 137.336 49.3064C137.336 49.7977 137.444 50.2367 137.662 50.6234C137.879 51.01 138.173 51.3161 138.544 51.5416C138.923 51.7672 139.345 51.8799 139.813 51.8799C140.175 51.8799 140.509 51.8155 140.815 51.6866C141.13 51.5497 141.399 51.3604 141.625 51.1187L141.879 51.3725C141.621 51.6463 141.311 51.8598 140.948 52.0128C140.594 52.1578 140.215 52.2303 139.813 52.2303ZM139.402 54.5985C139.168 54.5985 138.931 54.5542 138.689 54.4656C138.455 54.385 138.246 54.2682 138.061 54.1152L138.375 53.8494C138.504 53.9702 138.657 54.0628 138.834 54.1273C139.011 54.1998 139.2 54.236 139.402 54.236C139.716 54.236 139.958 54.1796 140.127 54.0668C140.304 53.9541 140.393 53.797 140.393 53.5956C140.393 53.3943 140.296 53.2372 140.103 53.1244C139.917 53.0197 139.647 52.9673 139.293 52.9673H139.051L139.341 52.0128H139.764L139.511 52.8465L139.341 52.6411C139.817 52.6411 140.179 52.7257 140.429 52.8949C140.687 53.064 140.815 53.3016 140.815 53.6077C140.815 53.9219 140.691 54.1635 140.441 54.3327C140.199 54.5099 139.853 54.5985 139.402 54.5985ZM146.629 52.2303C146.194 52.2303 145.803 52.1296 145.457 51.9283C145.118 51.7188 144.852 51.4329 144.659 51.0704C144.466 50.6999 144.369 50.273 144.369 49.7897V46.5516H144.744V49.7776C144.744 50.1884 144.82 50.5549 144.973 50.8771C145.134 51.1912 145.356 51.4409 145.638 51.6262C145.928 51.8034 146.258 51.892 146.629 51.892C147.192 51.892 147.647 51.6947 147.994 51.3C148.34 50.9053 148.513 50.3978 148.513 49.7776V46.5516H148.888V49.7897C148.888 50.2649 148.791 50.6878 148.598 51.0583C148.405 51.4289 148.139 51.7188 147.801 51.9283C147.462 52.1296 147.072 52.2303 146.629 52.2303Z" fill="white"/>
<path d="M14.4949 39.1121C12.451 39.1121 10.3029 38.9159 8.05045 38.5234C5.83972 38.1636 4.02526 37.722 2.60705 37.1987L3.42044 32.2925C5.08891 33.1102 6.94508 33.7807 8.98896 34.304C11.0328 34.7947 13.0559 35.04 15.058 35.04C17.6442 35.04 19.6672 34.6311 21.1271 33.8134C22.587 32.963 23.317 31.7365 23.317 30.1338C23.317 28.989 22.9624 28.0077 22.2533 27.19C21.5859 26.3723 20.6057 25.6528 19.3126 25.0313C18.0196 24.3771 16.2051 23.6412 13.8692 22.8235C11.1163 21.8423 8.92639 20.9428 7.29963 20.1251C5.71458 19.3074 4.44237 18.2934 3.483 17.0832C2.52363 15.873 2.04395 14.3685 2.04395 12.5695C2.04395 10.7379 2.64877 9.13517 3.85841 7.76143C5.06805 6.35498 6.75738 5.27561 8.92639 4.52333C11.1371 3.77104 13.6398 3.3949 16.4345 3.3949C18.5618 3.3949 20.564 3.57479 22.441 3.93458C24.3598 4.29437 25.9865 4.73593 27.3213 5.25926L26.6956 9.8711C23.2335 8.2684 19.7089 7.46706 16.1217 7.46706C13.7024 7.46706 11.8045 7.85955 10.428 8.64455C9.05153 9.42954 8.36328 10.6397 8.36328 12.2751C8.36328 13.3872 8.71783 14.3194 9.42694 15.0717C10.1777 15.7913 11.1997 16.4454 12.4928 17.0342C13.7858 17.5902 15.7463 18.3425 18.3741 19.291C22.295 20.6648 25.1523 22.153 26.9459 23.7557C28.7395 25.3257 29.6363 27.3045 29.6363 29.6922C29.6363 32.6032 28.2807 34.9091 25.5694 36.61C22.8581 38.2781 19.1666 39.1121 14.4949 39.1121Z" fill="#FFC400"/>
<path d="M44.0909 4.08177H49.7846V34.3531H66.4902V38.4253H44.0909V4.08177Z" fill="white"/>
<path d="M96.8321 39.1121C92.786 39.1121 89.2614 38.3926 86.2581 36.9534C83.2549 35.4815 80.919 33.4046 79.2505 30.7225C77.6238 28.0077 76.8104 24.8514 76.8104 21.2535C76.8104 17.6883 77.6446 14.5647 79.3131 11.8826C81.0233 9.16788 83.38 7.07456 86.3833 5.60269C89.3865 4.13083 92.786 3.3949 96.5818 3.3949C99.9187 3.3949 103.089 3.88552 106.092 4.86676L105.466 9.03704C102.797 7.99038 100.211 7.46706 97.708 7.46706C94.6213 7.46706 91.9726 8.07215 89.7619 9.28235C87.5929 10.4926 85.9453 12.1443 84.8191 14.2376C83.6929 16.3309 83.1297 18.6696 83.1297 21.2535C83.1297 23.8375 83.6929 26.1761 84.8191 28.2694C85.9453 30.3627 87.5929 32.0145 89.7619 33.2247C91.9726 34.4349 94.6422 35.04 97.7706 35.04C100.482 35.04 103.047 34.5494 105.466 33.5681L106.092 37.7384C103.423 38.6542 100.336 39.1121 96.8321 39.1121Z" fill="#FFC400"/>
<path d="M120.634 4.08177H127.078L144.409 29.2016V4.08177H150.103V38.4253H144.785L126.327 11.8826V38.4253H120.634V4.08177Z" fill="white"/>
</svg>
