<svg width="195" height="70" viewBox="0 0 195 70" fill="none" xmlns="http://www.w3.org/2000/svg">
<path d="M16.1952 46.4581C13.5367 46.4581 10.7426 46.2029 7.81277 45.6923C4.93723 45.2243 2.57713 44.65 0.732447 43.9693L1.79043 37.5877C3.96064 38.6513 6.375 39.5234 9.03351 40.2041C11.692 40.8423 14.3234 41.1614 16.9277 41.1614C20.2915 41.1614 22.9229 40.6296 24.8218 39.566C26.7207 38.4598 27.6702 36.8644 27.6702 34.7798C27.6702 33.2907 27.209 32.0144 26.2867 30.9508C25.4186 29.8872 24.1436 28.9512 22.4617 28.1429C20.7798 27.292 18.4197 26.3348 15.3814 25.2712C11.8005 23.9949 8.95213 22.8249 6.83617 21.7613C4.77447 20.6977 3.11968 19.3788 1.87181 17.8047C0.623936 16.2306 0 14.2735 0 11.9336C0 9.55115 0.786702 7.46649 2.36011 5.67964C3.93351 3.85024 6.13085 2.44628 8.95213 1.46777C11.8277 0.489257 15.083 0 18.7181 0C21.4851 0 24.0894 0.233993 26.5308 0.701979C29.0266 1.16996 31.1426 1.74431 32.8787 2.42501L32.0649 8.42373C27.5617 6.33907 22.9771 5.29674 18.3112 5.29674C15.1644 5.29674 12.6957 5.80726 10.9053 6.82832C9.11489 7.84938 8.21968 9.42351 8.21968 11.5507C8.21968 12.9972 8.68085 14.2097 9.60319 15.1882C10.5798 16.1242 11.909 16.9751 13.591 17.7409C15.2729 18.4641 17.8229 19.4426 21.241 20.6764C26.341 22.4633 30.0574 24.399 32.3904 26.4837C34.7234 28.5258 35.8899 31.0997 35.8899 34.2054C35.8899 37.9919 34.1266 40.9912 30.6 43.2035C27.0734 45.3732 22.2718 46.4581 16.1952 46.4581Z" fill="black"/>
<path d="M54.6913 0.893425H62.0971V40.268H83.8264V45.5647H54.6913V0.893425Z" fill="black"/>
<path d="M123.293 46.4581C118.03 46.4581 113.445 45.5222 109.539 43.6502C105.633 41.7357 102.594 39.0342 100.424 35.5456C98.3081 32.0144 97.2501 27.9089 97.2501 23.2291C97.2501 18.5918 98.3352 14.5288 100.505 11.0402C102.73 7.50903 105.795 4.78621 109.702 2.87173C113.608 0.957242 118.03 0 122.967 0C127.308 0 131.431 0.638162 135.337 1.91448L134.524 7.33885C131.051 5.97744 127.687 5.29674 124.432 5.29674C120.417 5.29674 116.972 6.0838 114.096 7.65793C111.275 9.23206 109.132 11.3805 107.667 14.1034C106.202 16.8262 105.47 19.8681 105.47 23.2291C105.47 26.59 106.202 29.6319 107.667 32.3548C109.132 35.0776 111.275 37.2261 114.096 38.8002C116.972 40.3743 120.444 41.1614 124.513 41.1614C128.04 41.1614 131.377 40.5232 134.524 39.2469L135.337 44.6713C131.865 45.8625 127.85 46.4581 123.293 46.4581Z" fill="black"/>
<path d="M154.252 0.893425H162.634L185.177 33.5673V0.893425H192.583V45.5647H185.666L161.658 11.0402V45.5647H154.252V0.893425Z" fill="black"/>
<path d="M4.47901 65.805C3.66179 65.805 2.94934 65.6478 2.34166 65.3335C1.73398 65.0087 1.21536 64.5687 0.785792 64.0134L1.14726 63.6676C1.5873 64.2648 2.08497 64.6944 2.64026 64.9563C3.19555 65.2078 3.81895 65.3335 4.51044 65.3335C5.28576 65.3335 5.91963 65.1449 6.41206 64.7677C6.90449 64.3906 7.1507 63.8667 7.1507 63.1962C7.1507 62.6933 7.04593 62.2846 6.83639 61.9703C6.63732 61.6455 6.37015 61.3836 6.03488 61.1845C5.69961 60.9855 5.33291 60.8126 4.93477 60.6659C4.53664 60.5088 4.1385 60.3568 3.74037 60.2101C3.34223 60.053 2.97553 59.8644 2.64026 59.6444C2.30499 59.4139 2.03258 59.1258 1.82304 58.78C1.62397 58.4238 1.52444 57.9733 1.52444 57.4284C1.52444 56.9151 1.64492 56.4698 1.8859 56.0926C2.13735 55.7049 2.4831 55.4063 2.92314 55.1968C3.36319 54.9768 3.87657 54.8668 4.4633 54.8668C5.14432 54.8668 5.75199 54.9977 6.28633 55.2597C6.82067 55.5216 7.27643 55.8988 7.65361 56.3912L7.29215 56.737C6.93592 56.2864 6.52731 55.9407 6.06631 55.6997C5.61579 55.4587 5.08145 55.3382 4.4633 55.3382C3.75085 55.3382 3.16936 55.5216 2.71884 55.8883C2.26832 56.255 2.04306 56.7631 2.04306 57.4127C2.04306 57.8842 2.14259 58.2719 2.34166 58.5757C2.5512 58.8691 2.82361 59.1153 3.15888 59.3143C3.49415 59.5029 3.86086 59.6706 4.25899 59.8173C4.65712 59.9535 5.05526 60.1001 5.45339 60.2573C5.85153 60.4145 6.21823 60.6083 6.5535 60.8388C6.88877 61.0693 7.15594 61.3679 7.35501 61.7346C7.56455 62.0908 7.66933 62.5466 7.66933 63.1019C7.66933 63.9924 7.3812 64.6682 6.80496 65.1292C6.23919 65.5797 5.46387 65.805 4.47901 65.805ZM14.5692 65.805C13.8672 65.805 13.2333 65.6373 12.6676 65.3021C12.1123 64.9668 11.667 64.511 11.3317 63.9348C11.0069 63.3586 10.8445 62.7142 10.8445 62.0018C10.8445 61.2998 11.0069 60.6659 11.3317 60.1001C11.667 59.5344 12.1123 59.0891 12.6676 58.7643C13.2333 58.429 13.8672 58.2614 14.5692 58.2614C15.2607 58.2614 15.8841 58.429 16.4394 58.7643C17.0051 59.0891 17.4504 59.5344 17.7752 60.1001C18.1105 60.6659 18.2781 61.2998 18.2781 62.0018C18.2781 62.7247 18.1105 63.3743 17.7752 63.9505C17.4504 64.5163 17.0051 64.9668 16.4394 65.3021C15.8841 65.6373 15.2607 65.805 14.5692 65.805ZM14.5692 65.3492C15.1769 65.3492 15.7217 65.2025 16.2036 64.9092C16.6856 64.6158 17.068 64.2177 17.3509 63.7148C17.6338 63.2014 17.7752 62.6251 17.7752 61.986C17.7752 61.3679 17.6338 60.8126 17.3509 60.3202C17.068 59.8277 16.6856 59.4401 16.2036 59.1572C15.7217 58.8638 15.1769 58.7171 14.5692 58.7171C13.9615 58.7171 13.4115 58.8638 12.919 59.1572C12.4371 59.4401 12.0547 59.8277 11.7718 60.3202C11.4889 60.8126 11.3474 61.3731 11.3474 62.0018C11.3474 62.6409 11.4889 63.2119 11.7718 63.7148C12.0547 64.2177 12.4371 64.6158 12.919 64.9092C13.4115 65.2025 13.9615 65.3492 14.5692 65.3492ZM23.9711 65.805C23.5834 65.805 23.2167 65.7526 22.871 65.6478C22.5357 65.5326 22.2318 65.3807 21.9594 65.1921C21.687 64.993 21.4461 64.7677 21.2365 64.5163L21.5665 64.1705C21.8809 64.5792 22.2423 64.883 22.6509 65.0821C23.0595 65.2706 23.5048 65.3649 23.9868 65.3649C24.584 65.3649 25.0607 65.2392 25.4169 64.9878C25.7731 64.7258 25.9513 64.3696 25.9513 63.9191C25.9513 63.521 25.8465 63.2066 25.6369 62.9761C25.4379 62.7456 25.1759 62.5675 24.8511 62.4418C24.5264 62.3161 24.1806 62.2008 23.8139 62.096C23.4577 61.9913 23.1172 61.8708 22.7924 61.7346C22.4676 61.5879 22.2004 61.3888 21.9909 61.1374C21.7918 60.8755 21.6923 60.5245 21.6923 60.0844C21.6923 59.7282 21.7866 59.4139 21.9752 59.1415C22.1637 58.8691 22.4309 58.6543 22.7767 58.4971C23.1224 58.34 23.531 58.2614 24.0025 58.2614C24.5159 58.2614 24.9874 58.3557 25.4169 58.5443C25.8465 58.7224 26.1818 58.9843 26.4227 59.3301L26.0927 59.6601C25.8832 59.3667 25.5898 59.1362 25.2126 58.9686C24.8354 58.7905 24.4163 58.7014 23.9553 58.7014C23.3686 58.7014 22.9233 58.8324 22.6195 59.0943C22.3157 59.3563 22.1637 59.681 22.1637 60.0687C22.1637 60.4354 22.2633 60.7235 22.4623 60.9331C22.6719 61.1426 22.9391 61.305 23.2638 61.4203C23.5886 61.5355 23.9292 61.6455 24.2854 61.7503C24.6521 61.8446 24.9978 61.9703 25.3226 62.1275C25.6474 62.2742 25.9093 62.4837 26.1084 62.7561C26.318 63.018 26.4227 63.3847 26.4227 63.8562C26.4227 64.4534 26.1975 64.9301 25.747 65.2864C25.3069 65.6321 24.7149 65.805 23.9711 65.805ZM32.5361 65.6478L29.2672 58.4185H29.8015L32.819 65.2078H32.4575L35.6164 58.4185H36.1507L32.7247 65.6478H32.5361ZM30.7445 68.7281L32.4732 65.1764L32.7247 65.6478L31.2631 68.7281H30.7445ZM42.1977 65.805C41.4958 65.805 40.8619 65.6373 40.2961 65.3021C39.7408 64.9668 39.2956 64.511 38.9603 63.9348C38.6355 63.3586 38.4731 62.7142 38.4731 62.0018C38.4731 61.2998 38.6355 60.6659 38.9603 60.1001C39.2956 59.5344 39.7408 59.0891 40.2961 58.7643C40.8619 58.429 41.4958 58.2614 42.1977 58.2614C42.8892 58.2614 43.5126 58.429 44.0679 58.7643C44.6337 59.0891 45.079 59.5344 45.4038 60.1001C45.739 60.6659 45.9067 61.2998 45.9067 62.0018C45.9067 62.7247 45.739 63.3743 45.4038 63.9505C45.079 64.5163 44.6337 64.9668 44.0679 65.3021C43.5126 65.6373 42.8892 65.805 42.1977 65.805ZM42.1977 65.3492C42.8054 65.3492 43.3502 65.2025 43.8322 64.9092C44.3141 64.6158 44.6966 64.2177 44.9794 63.7148C45.2623 63.2014 45.4038 62.6251 45.4038 61.986C45.4038 61.3679 45.2623 60.8126 44.9794 60.3202C44.6966 59.8277 44.3141 59.4401 43.8322 59.1572C43.3502 58.8638 42.8054 58.7171 42.1977 58.7171C41.5901 58.7171 41.04 58.8638 40.5476 59.1572C40.0656 59.4401 39.6832 59.8277 39.4003 60.3202C39.1174 60.8126 38.976 61.3731 38.976 62.0018C38.976 62.6409 39.1174 63.2119 39.4003 63.7148C39.6832 64.2177 40.0656 64.6158 40.5476 64.9092C41.04 65.2025 41.5901 65.3492 42.1977 65.3492ZM49.5251 65.6478V54.7096H50.0123V65.6478H49.5251ZM57.358 65.805C56.656 65.805 56.0221 65.6373 55.4564 65.3021C54.9011 64.9668 54.4558 64.511 54.1205 63.9348C53.7957 63.3586 53.6333 62.7142 53.6333 62.0018C53.6333 61.2998 53.7957 60.6659 54.1205 60.1001C54.4558 59.5344 54.9011 59.0891 55.4564 58.7643C56.0221 58.429 56.656 58.2614 57.358 58.2614C58.0495 58.2614 58.6729 58.429 59.2282 58.7643C59.7939 59.0891 60.2392 59.5344 60.564 60.1001C60.8993 60.6659 61.0669 61.2998 61.0669 62.0018C61.0669 62.7247 60.8993 63.3743 60.564 63.9505C60.2392 64.5163 59.7939 64.9668 59.2282 65.3021C58.6729 65.6373 58.0495 65.805 57.358 65.805ZM57.358 65.3492C57.9657 65.3492 58.5105 65.2025 58.9924 64.9092C59.4744 64.6158 59.8568 64.2177 60.1397 63.7148C60.4226 63.2014 60.564 62.6251 60.564 61.986C60.564 61.3679 60.4226 60.8126 60.1397 60.3202C59.8568 59.8277 59.4744 59.4401 58.9924 59.1572C58.5105 58.8638 57.9657 58.7171 57.358 58.7171C56.7503 58.7171 56.2003 58.8638 55.7078 59.1572C55.2259 59.4401 54.8435 59.8277 54.5606 60.3202C54.2777 60.8126 54.1362 61.3731 54.1362 62.0018C54.1362 62.6409 54.2777 63.2119 54.5606 63.7148C54.8435 64.2177 55.2259 64.6158 55.7078 64.9092C56.2003 65.2025 56.7503 65.3492 57.358 65.3492ZM67.6557 68.8853C66.9642 68.8853 66.3355 68.7543 65.7698 68.4924C65.204 68.2305 64.7482 67.8533 64.4025 67.3609L64.7011 67.0623C64.984 67.4709 65.3821 67.8009 65.8955 68.0523C66.4089 68.3038 67.0008 68.4295 67.6714 68.4295C68.6772 68.4295 69.4735 68.1519 70.0602 67.5966C70.6574 67.0518 70.956 66.3131 70.956 65.3807V63.5419L71.0974 61.8446L70.956 60.1944V58.4185H71.4432V65.3807C71.4432 66.0826 71.286 66.6955 70.9717 67.2194C70.6574 67.7433 70.2121 68.1519 69.6359 68.4452C69.0701 68.7386 68.41 68.8853 67.6557 68.8853ZM67.8914 65.6478C67.1894 65.6478 66.5608 65.4907 66.0055 65.1764C65.4607 64.8516 65.0259 64.4115 64.7011 63.8562C64.3868 63.3009 64.2296 62.6671 64.2296 61.9546C64.2296 61.2526 64.3868 60.624 64.7011 60.0687C65.0154 59.5134 65.445 59.0734 65.9898 58.7486C66.5451 58.4238 67.1685 58.2614 67.86 58.2614C68.4153 58.2614 68.9182 58.3662 69.3687 58.5757C69.8297 58.7748 70.2121 59.0629 70.5159 59.4401C70.8303 59.8173 71.045 60.2678 71.1603 60.7916V63.1333C71.0346 63.6467 70.8145 64.092 70.5002 64.4691C70.1964 64.8463 69.8192 65.1397 69.3687 65.3492C68.9286 65.5483 68.4362 65.6478 67.8914 65.6478ZM67.9543 65.1921C68.5515 65.1921 69.0753 65.0611 69.5259 64.7992C69.9868 64.5268 70.3431 64.1496 70.5945 63.6676C70.846 63.1752 70.9717 62.6042 70.9717 61.9546C70.9717 61.3155 70.8407 60.755 70.5788 60.273C70.3274 59.7911 69.9711 59.4139 69.5101 59.1415C69.0596 58.8586 68.5305 58.7171 67.9228 58.7171C67.3047 58.7171 66.7546 58.8586 66.2727 59.1415C65.7907 59.4139 65.4135 59.7911 65.1411 60.273C64.8687 60.755 64.7325 61.3103 64.7325 61.9389C64.7325 62.5675 64.8687 63.1281 65.1411 63.6205C65.424 64.1129 65.8064 64.5006 66.2884 64.7835C66.7703 65.0559 67.3256 65.1921 67.9543 65.1921ZM80.7051 61.9232V61.4517H85.4041V61.9232H80.7051ZM100.176 65.6478V55.0239H100.679V65.6478H100.176ZM100.459 65.6478V65.1921H107.012V65.6478H100.459ZM100.459 60.4145V59.9744H106.541V60.4145H100.459ZM100.459 55.4797V55.0239H106.918V55.4797H100.459ZM113.443 68.8853C112.752 68.8853 112.123 68.7543 111.557 68.4924C110.992 68.2305 110.536 67.8533 110.19 67.3609L110.489 67.0623C110.772 67.4709 111.17 67.8009 111.683 68.0523C112.197 68.3038 112.789 68.4295 113.459 68.4295C114.465 68.4295 115.261 68.1519 115.848 67.5966C116.445 67.0518 116.744 66.3131 116.744 65.3807V63.5419L116.885 61.8446L116.744 60.1944V58.4185H117.231V65.3807C117.231 66.0826 117.074 66.6955 116.759 67.2194C116.445 67.7433 116 68.1519 115.424 68.4452C114.858 68.7386 114.198 68.8853 113.443 68.8853ZM113.679 65.6478C112.977 65.6478 112.349 65.4907 111.793 65.1764C111.248 64.8516 110.814 64.4115 110.489 63.8562C110.174 63.3009 110.017 62.6671 110.017 61.9546C110.017 61.2526 110.174 60.624 110.489 60.0687C110.803 59.5134 111.233 59.0734 111.777 58.7486C112.333 58.4238 112.956 58.2614 113.648 58.2614C114.203 58.2614 114.706 58.3662 115.156 58.5757C115.617 58.7748 116 59.0629 116.304 59.4401C116.618 59.8173 116.833 60.2678 116.948 60.7916V63.1333C116.822 63.6467 116.602 64.092 116.288 64.4691C115.984 64.8463 115.607 65.1397 115.156 65.3492C114.716 65.5483 114.224 65.6478 113.679 65.6478ZM113.742 65.1921C114.339 65.1921 114.863 65.0611 115.314 64.7992C115.775 64.5268 116.131 64.1496 116.382 63.6676C116.634 63.1752 116.759 62.6042 116.759 61.9546C116.759 61.3155 116.628 60.755 116.367 60.273C116.115 59.7911 115.759 59.4139 115.298 59.1415C114.847 58.8586 114.318 58.7171 113.711 58.7171C113.092 58.7171 112.542 58.8586 112.06 59.1415C111.578 59.4139 111.201 59.7911 110.929 60.273C110.656 60.755 110.52 61.3103 110.52 61.9389C110.52 62.5675 110.656 63.1281 110.929 63.6205C111.212 64.1129 111.594 64.5006 112.076 64.7835C112.558 65.0559 113.113 65.1921 113.742 65.1921ZM116.382 55.1182C116.382 55.5687 116.277 55.9774 116.068 56.3441C115.869 56.7108 115.591 56.9989 115.235 57.2084C114.889 57.418 114.486 57.5227 114.025 57.5227C113.553 57.5227 113.134 57.418 112.768 57.2084C112.401 56.9989 112.113 56.7108 111.903 56.3441C111.704 55.9774 111.605 55.5687 111.605 55.1182H112.06C112.06 55.6945 112.238 56.1712 112.595 56.5484C112.961 56.9255 113.449 57.1141 114.056 57.1141C114.402 57.1141 114.716 57.0303 114.999 56.8627C115.293 56.6846 115.523 56.4436 115.691 56.1397C115.858 55.8359 115.942 55.4954 115.942 55.1182H116.382ZM121.299 65.6478V58.4185H121.786V65.6478H121.299ZM121.535 56.6112C121.399 56.6112 121.283 56.5588 121.189 56.4541C121.095 56.3493 121.048 56.2288 121.048 56.0926C121.048 55.9459 121.095 55.8254 121.189 55.7311C121.283 55.6368 121.399 55.5897 121.535 55.5897C121.682 55.5897 121.802 55.6368 121.896 55.7311C122.001 55.8254 122.054 55.9459 122.054 56.0926C122.054 56.2288 122.001 56.3493 121.896 56.4541C121.802 56.5588 121.682 56.6112 121.535 56.6112ZM127.041 65.6478V55.3382H127.529V65.6478H127.041ZM125.124 58.8429V58.4185H129.43V58.8429H125.124ZM132.745 65.6478V58.4185H133.233V65.6478H132.745ZM132.981 56.6112C132.845 56.6112 132.73 56.5588 132.635 56.4541C132.541 56.3493 132.494 56.2288 132.494 56.0926C132.494 55.9459 132.541 55.8254 132.635 55.7311C132.73 55.6368 132.845 55.5897 132.981 55.5897C133.128 55.5897 133.248 55.6368 133.343 55.7311C133.447 55.8254 133.5 55.9459 133.5 56.0926C133.5 56.2288 133.447 56.3493 133.343 56.4541C133.248 56.5588 133.128 56.6112 132.981 56.6112ZM137.34 65.6478V58.4185H137.828V65.6478H137.34ZM142.495 65.6478V61.0902C142.495 60.3778 142.286 59.8015 141.867 59.3615C141.447 58.9215 140.908 58.7014 140.248 58.7014C139.808 58.7014 139.404 58.801 139.038 59C138.671 59.1991 138.378 59.4767 138.158 59.833C137.938 60.1787 137.828 60.5873 137.828 61.0588L137.498 61.0431C137.498 60.4878 137.618 60.0006 137.859 59.5815C138.11 59.1624 138.446 58.8376 138.865 58.6071C139.294 58.3766 139.771 58.2614 140.295 58.2614C140.808 58.2614 141.264 58.3766 141.662 58.6071C142.071 58.8376 142.39 59.1624 142.621 59.5815C142.862 60.0006 142.982 60.493 142.982 61.0588V65.6478H142.495ZM147.65 65.6478V61.0902C147.65 60.3778 147.44 59.8015 147.021 59.3615C146.602 58.9215 146.063 58.7014 145.403 58.7014C144.963 58.7014 144.559 58.801 144.192 59C143.826 59.1991 143.532 59.4767 143.312 59.833C143.092 60.1787 142.982 60.5873 142.982 61.0588L142.652 61.0431C142.652 60.4773 142.778 59.9901 143.03 59.5815C143.281 59.1624 143.616 58.8376 144.035 58.6071C144.465 58.3766 144.936 58.2614 145.45 58.2614C145.963 58.2614 146.419 58.3766 146.817 58.6071C147.226 58.8376 147.545 59.1677 147.776 59.5972C148.017 60.0163 148.137 60.5088 148.137 61.0745V65.6478H147.65ZM164.613 65.6478L157.887 60.1159L164.472 55.0239H165.242L158.437 60.273V59.943L165.399 65.6478H164.613ZM157.557 65.6478V55.0239H158.06V65.6478H157.557ZM171.276 65.805C170.574 65.805 169.94 65.6373 169.375 65.3021C168.819 64.9668 168.374 64.511 168.039 63.9348C167.714 63.3586 167.552 62.7142 167.552 62.0018C167.552 61.2998 167.714 60.6659 168.039 60.1001C168.374 59.5344 168.819 59.0891 169.375 58.7643C169.94 58.429 170.574 58.2614 171.276 58.2614C171.968 58.2614 172.591 58.429 173.146 58.7643C173.712 59.0891 174.158 59.5344 174.482 60.1001C174.818 60.6659 174.985 61.2998 174.985 62.0018C174.985 62.7247 174.818 63.3743 174.482 63.9505C174.158 64.5163 173.712 64.9668 173.146 65.3021C172.591 65.6373 171.968 65.805 171.276 65.805ZM171.276 65.3492C171.884 65.3492 172.429 65.2025 172.911 64.9092C173.393 64.6158 173.775 64.2177 174.058 63.7148C174.341 63.2014 174.482 62.6251 174.482 61.986C174.482 61.3679 174.341 60.8126 174.058 60.3202C173.775 59.8277 173.393 59.4401 172.911 59.1572C172.429 58.8638 171.884 58.7171 171.276 58.7171C170.669 58.7171 170.119 58.8638 169.626 59.1572C169.144 59.4401 168.762 59.8277 168.479 60.3202C168.196 60.8126 168.055 61.3731 168.055 62.0018C168.055 62.6409 168.196 63.2119 168.479 63.7148C168.762 64.2177 169.144 64.6158 169.626 64.9092C170.119 65.2025 170.669 65.3492 171.276 65.3492ZM181.857 65.805C181.155 65.805 180.521 65.6373 179.955 65.3021C179.4 64.9668 178.955 64.511 178.619 63.9348C178.295 63.3586 178.132 62.7142 178.132 62.0018C178.132 61.2998 178.295 60.6659 178.619 60.1001C178.955 59.5344 179.4 59.0891 179.955 58.7643C180.521 58.429 181.155 58.2614 181.857 58.2614C182.381 58.2614 182.868 58.3609 183.318 58.56C183.779 58.7486 184.172 59.0157 184.497 59.3615L184.167 59.6915C183.884 59.3877 183.544 59.152 183.146 58.9843C182.747 58.8062 182.318 58.7171 181.857 58.7171C181.249 58.7171 180.699 58.8638 180.207 59.1572C179.725 59.4401 179.342 59.8277 179.059 60.3202C178.777 60.8126 178.635 61.3731 178.635 62.0018C178.635 62.6409 178.777 63.2119 179.059 63.7148C179.342 64.2177 179.725 64.6158 180.207 64.9092C180.699 65.2025 181.249 65.3492 181.857 65.3492C182.328 65.3492 182.763 65.2654 183.161 65.0978C183.57 64.9197 183.921 64.6734 184.214 64.3591L184.544 64.6892C184.209 65.0454 183.806 65.323 183.334 65.5221C182.873 65.7107 182.381 65.805 181.857 65.805ZM181.322 68.8853C181.019 68.8853 180.71 68.8277 180.395 68.7124C180.091 68.6076 179.819 68.4557 179.578 68.2567L179.987 67.9109C180.154 68.0681 180.353 68.1886 180.584 68.2724C180.814 68.3667 181.061 68.4138 181.322 68.4138C181.731 68.4138 182.045 68.3405 182.265 68.1938C182.496 68.0471 182.611 67.8428 182.611 67.5809C182.611 67.3189 182.485 67.1146 182.234 66.968C181.993 66.8318 181.642 66.7637 181.181 66.7637H180.867L181.244 65.5221H181.794L181.464 66.6065L181.244 66.3393C181.862 66.3393 182.334 66.4493 182.658 66.6694C182.994 66.8894 183.161 67.1985 183.161 67.5966C183.161 68.0052 182.999 68.3195 182.674 68.5395C182.36 68.77 181.909 68.8853 181.322 68.8853ZM190.722 65.805C190.157 65.805 189.648 65.674 189.198 65.4121C188.758 65.1397 188.412 64.7677 188.161 64.2963C187.909 63.8143 187.784 63.259 187.784 62.6304V58.4185H188.271V62.6147C188.271 63.149 188.37 63.6257 188.569 64.0448C188.779 64.4534 189.067 64.7782 189.434 65.0192C189.811 65.2497 190.24 65.3649 190.722 65.3649C191.456 65.3649 192.048 65.1083 192.498 64.5949C192.949 64.0815 193.174 63.4214 193.174 62.6147V58.4185H193.661V62.6304C193.661 63.2485 193.536 63.7986 193.284 64.2805C193.033 64.7625 192.687 65.1397 192.247 65.4121C191.807 65.674 191.299 65.805 190.722 65.805Z" fill="black"/>
</svg>
