<svg width="150" height="54" viewBox="0 0 150 54" fill="none" xmlns="http://www.w3.org/2000/svg">
<path d="M12.451 35.7173C10.4071 35.7173 8.25894 35.521 6.0065 35.1285C3.79577 34.7687 1.98131 34.3272 0.563109 33.8039L1.37649 28.8976C3.04496 29.7153 4.90114 30.3859 6.94501 30.9092C8.98889 31.3998 11.0119 31.6451 13.0141 31.6451C15.6002 31.6451 17.6232 31.2363 19.0832 30.4186C20.5431 29.5681 21.273 28.3416 21.273 26.7389C21.273 25.5941 20.9185 24.6129 20.2094 23.7952C19.542 22.9775 18.5618 22.2579 17.2687 21.6364C15.9756 20.9823 14.1612 20.2463 11.8253 19.4286C9.07232 18.4474 6.88245 17.5479 5.25569 16.7302C3.67064 15.9125 2.39843 14.8986 1.43906 13.6884C0.479686 12.4782 0 10.9736 0 9.17463C0 7.34298 0.604821 5.74028 1.81446 4.36654C3.02411 2.96009 4.71343 1.88072 6.88245 1.12843C9.09317 0.376143 11.5959 0 14.3906 0C16.5179 0 18.52 0.179895 20.3971 0.539686C22.3158 0.899475 23.9426 1.34103 25.2774 1.86436L24.6517 6.47621C21.1896 4.87351 17.6649 4.07216 14.0777 4.07216C11.6584 4.07216 9.76056 4.46466 8.38407 5.24965C7.00758 6.03465 6.31934 7.24485 6.31934 8.88026C6.31934 9.99233 6.67389 10.9245 7.38299 11.6768C8.1338 12.3964 9.15574 13.0505 10.4488 13.6393C11.7419 14.1953 13.7023 14.9476 16.3302 15.8962C20.2511 17.2699 23.1083 18.7581 24.9019 20.3608C26.6956 21.9308 27.5924 23.9096 27.5924 26.2973C27.5924 29.2084 26.2367 31.5143 23.5255 33.2151C20.8142 34.8832 17.1227 35.7173 12.451 35.7173Z" fill="black"/>
<path d="M42.047 0.686871H47.7406V30.9582H64.4462V35.0304H42.047V0.686871Z" fill="black"/>
<path d="M94.7881 35.7173C90.7421 35.7173 87.2174 34.9977 84.2142 33.5585C81.2109 32.0867 78.8751 30.0097 77.2066 27.3276C75.5798 24.6129 74.7664 21.4565 74.7664 17.8586C74.7664 14.2935 75.6007 11.1698 77.2692 8.48776C78.9793 5.77299 81.3361 3.67967 84.3393 2.2078C87.3426 0.735933 90.7421 0 94.5378 0C97.8748 0 101.045 0.490622 104.048 1.47187L103.422 5.64215C100.753 4.59549 98.1668 4.07216 95.6641 4.07216C92.5774 4.07216 89.9287 4.67726 87.718 5.88746C85.5489 7.09766 83.9013 8.74942 82.7751 10.8427C81.6489 12.9361 81.0858 15.2747 81.0858 17.8586C81.0858 20.4426 81.6489 22.7812 82.7751 24.8745C83.9013 26.9679 85.5489 28.6196 87.718 29.8298C89.9287 31.04 92.5982 31.6451 95.7266 31.6451C98.4379 31.6451 101.003 31.1545 103.422 30.1733L104.048 34.3435C101.379 35.2594 98.2919 35.7173 94.7881 35.7173Z" fill="black"/>
<path d="M118.59 0.686871H125.034L142.365 25.8067V0.686871H148.059V35.0304H142.741L124.283 8.48776V35.0304H118.59V0.686871Z" fill="black"/>
<path d="M3.44349 50.2904C2.8152 50.2904 2.26747 50.1696 1.80028 49.9279C1.33309 49.6782 0.934374 49.3399 0.604121 48.913L0.882017 48.6472C1.22032 49.1063 1.60293 49.4366 2.02985 49.6379C2.45676 49.8312 2.93603 49.9279 3.46766 49.9279C4.06372 49.9279 4.55105 49.7829 4.92963 49.4929C5.30821 49.203 5.4975 48.8002 5.4975 48.2847C5.4975 47.8981 5.41695 47.5839 5.25585 47.3423C5.10281 47.0926 4.89741 46.8912 4.63965 46.7381C4.38189 46.5851 4.09997 46.4522 3.79388 46.3394C3.48779 46.2186 3.1817 46.1018 2.87562 45.989C2.56953 45.8682 2.28761 45.7232 2.02985 45.5541C1.77209 45.3769 1.56266 45.1553 1.40156 44.8895C1.24852 44.6157 1.172 44.2693 1.172 43.8504C1.172 43.4558 1.26463 43.1134 1.44989 42.8234C1.64321 42.5254 1.90902 42.2958 2.24733 42.1347C2.58564 41.9656 2.98033 41.881 3.43141 41.881C3.95498 41.881 4.42217 41.9817 4.83297 42.1831C5.24377 42.3844 5.59416 42.6744 5.88414 43.053L5.60624 43.3188C5.33238 42.9725 5.01823 42.7066 4.66382 42.5214C4.31745 42.3361 3.90665 42.2435 3.43141 42.2435C2.88367 42.2435 2.43662 42.3844 2.09026 42.6664C1.7439 42.9483 1.57072 43.339 1.57072 43.8384C1.57072 44.2008 1.64724 44.4989 1.80028 44.7325C1.96138 44.958 2.17081 45.1473 2.42857 45.3003C2.68633 45.4453 2.96825 45.5742 3.27434 45.687C3.58042 45.7917 3.88651 45.9045 4.1926 46.0253C4.49869 46.1461 4.78061 46.2951 5.03837 46.4723C5.29613 46.6495 5.50153 46.8791 5.65457 47.161C5.81567 47.4349 5.89622 47.7853 5.89622 48.2122C5.89622 48.8969 5.67471 49.4164 5.23169 49.7708C4.79672 50.1172 4.20066 50.2904 3.44349 50.2904ZM11.2009 50.2904C10.6612 50.2904 10.1739 50.1615 9.73891 49.9037C9.31199 49.646 8.96966 49.2956 8.7119 48.8526C8.4622 48.4095 8.33734 47.9142 8.33734 47.3664C8.33734 46.8268 8.4622 46.3394 8.7119 45.9045C8.96966 45.4695 9.31199 45.1272 9.73891 44.8775C10.1739 44.6197 10.6612 44.4908 11.2009 44.4908C11.7325 44.4908 12.2118 44.6197 12.6387 44.8775C13.0737 45.1272 13.416 45.4695 13.6657 45.9045C13.9235 46.3394 14.0523 46.8268 14.0523 47.3664C14.0523 47.9222 13.9235 48.4216 13.6657 48.8647C13.416 49.2996 13.0737 49.646 12.6387 49.9037C12.2118 50.1615 11.7325 50.2904 11.2009 50.2904ZM11.2009 49.94C11.6681 49.94 12.0869 49.8272 12.4575 49.6017C12.828 49.3761 13.122 49.0701 13.3395 48.6834C13.557 48.2887 13.6657 47.8457 13.6657 47.3544C13.6657 46.8791 13.557 46.4522 13.3395 46.0736C13.122 45.695 12.828 45.397 12.4575 45.1795C12.0869 44.954 11.6681 44.8412 11.2009 44.8412C10.7337 44.8412 10.3108 44.954 9.93222 45.1795C9.5617 45.397 9.26769 45.695 9.05021 46.0736C8.83272 46.4522 8.72398 46.8831 8.72398 47.3664C8.72398 47.8578 8.83272 48.2968 9.05021 48.6834C9.26769 49.0701 9.5617 49.3761 9.93222 49.6017C10.3108 49.8272 10.7337 49.94 11.2009 49.94ZM18.4291 50.2904C18.1311 50.2904 17.8491 50.2501 17.5833 50.1696C17.3256 50.081 17.092 49.9642 16.8825 49.8192C16.6731 49.6661 16.4879 49.4929 16.3268 49.2996L16.5805 49.0338C16.8221 49.348 17.1 49.5815 17.4142 49.7346C17.7283 49.8796 18.0706 49.9521 18.4412 49.9521C18.9003 49.9521 19.2668 49.8554 19.5407 49.6621C19.8145 49.4607 19.9515 49.1869 19.9515 48.8405C19.9515 48.5344 19.8709 48.2928 19.7098 48.1155C19.5568 47.9383 19.3554 47.8014 19.1057 47.7047C18.856 47.6081 18.5902 47.5195 18.3083 47.4389C18.0344 47.3584 17.7726 47.2657 17.5229 47.161C17.2732 47.0483 17.0678 46.8952 16.9067 46.7019C16.7537 46.5005 16.6771 46.2307 16.6771 45.8924C16.6771 45.6185 16.7496 45.3769 16.8946 45.1674C17.0396 44.958 17.245 44.7929 17.5108 44.6721C17.7766 44.5512 18.0908 44.4908 18.4533 44.4908C18.848 44.4908 19.2104 44.5633 19.5407 44.7083C19.8709 44.8452 20.1287 45.0466 20.314 45.3124L20.0602 45.5662C19.8991 45.3406 19.6736 45.1634 19.3836 45.0345C19.0936 44.8976 18.7714 44.8291 18.417 44.8291C17.9659 44.8291 17.6236 44.9298 17.39 45.1312C17.1564 45.3326 17.0396 45.5823 17.0396 45.8803C17.0396 46.1622 17.1161 46.3837 17.2692 46.5448C17.4303 46.7059 17.6357 46.8308 17.8854 46.9194C18.1351 47.008 18.3969 47.0926 18.6707 47.1731C18.9527 47.2456 19.2185 47.3423 19.4682 47.4631C19.7179 47.5759 19.9193 47.737 20.0723 47.9464C20.2334 48.1478 20.314 48.4297 20.314 48.7922C20.314 49.2513 20.1408 49.6178 19.7944 49.8917C19.4561 50.1575 19.001 50.2904 18.4291 50.2904ZM25.0139 50.1696L22.5008 44.6116H22.9116L25.2314 49.8312H24.9535L27.3821 44.6116H27.7929L25.1589 50.1696H25.0139ZM23.6365 52.5377L24.9656 49.8071L25.1589 50.1696L24.0352 52.5377H23.6365ZM32.4419 50.2904C31.9022 50.2904 31.4149 50.1615 30.9799 49.9037C30.553 49.646 30.2107 49.2956 29.9529 48.8526C29.7032 48.4095 29.5783 47.9142 29.5783 47.3664C29.5783 46.8268 29.7032 46.3394 29.9529 45.9045C30.2107 45.4695 30.553 45.1272 30.9799 44.8775C31.4149 44.6197 31.9022 44.4908 32.4419 44.4908C32.9735 44.4908 33.4528 44.6197 33.8797 44.8775C34.3146 45.1272 34.657 45.4695 34.9067 45.9045C35.1644 46.3394 35.2933 46.8268 35.2933 47.3664C35.2933 47.9222 35.1644 48.4216 34.9067 48.8647C34.657 49.2996 34.3146 49.646 33.8797 49.9037C33.4528 50.1615 32.9735 50.2904 32.4419 50.2904ZM32.4419 49.94C32.9091 49.94 33.3279 49.8272 33.6984 49.6017C34.069 49.3761 34.363 49.0701 34.5805 48.6834C34.7979 48.2887 34.9067 47.8457 34.9067 47.3544C34.9067 46.8791 34.7979 46.4522 34.5805 46.0736C34.363 45.695 34.069 45.397 33.6984 45.1795C33.3279 44.954 32.9091 44.8412 32.4419 44.8412C31.9747 44.8412 31.5518 44.954 31.1732 45.1795C30.8027 45.397 30.5087 45.695 30.2912 46.0736C30.0737 46.4522 29.965 46.8831 29.965 47.3664C29.965 47.8578 30.0737 48.2968 30.2912 48.6834C30.5087 49.0701 30.8027 49.3761 31.1732 49.6017C31.5518 49.8272 31.9747 49.94 32.4419 49.94ZM38.0752 50.1696V41.7602H38.4498V50.1696H38.0752ZM44.0972 50.2904C43.5575 50.2904 43.0702 50.1615 42.6352 49.9037C42.2083 49.646 41.8659 49.2956 41.6082 48.8526C41.3585 48.4095 41.2336 47.9142 41.2336 47.3664C41.2336 46.8268 41.3585 46.3394 41.6082 45.9045C41.8659 45.4695 42.2083 45.1272 42.6352 44.8775C43.0702 44.6197 43.5575 44.4908 44.0972 44.4908C44.6288 44.4908 45.1081 44.6197 45.535 44.8775C45.9699 45.1272 46.3123 45.4695 46.562 45.9045C46.8197 46.3394 46.9486 46.8268 46.9486 47.3664C46.9486 47.9222 46.8197 48.4216 46.562 48.8647C46.3123 49.2996 45.9699 49.646 45.535 49.9037C45.1081 50.1615 44.6288 50.2904 44.0972 50.2904ZM44.0972 49.94C44.5644 49.94 44.9832 49.8272 45.3537 49.6017C45.7243 49.3761 46.0183 49.0701 46.2358 48.6834C46.4532 48.2887 46.562 47.8457 46.562 47.3544C46.562 46.8791 46.4532 46.4522 46.2358 46.0736C46.0183 45.695 45.7243 45.397 45.3537 45.1795C44.9832 44.954 44.5644 44.8412 44.0972 44.8412C43.63 44.8412 43.2071 44.954 42.8285 45.1795C42.458 45.397 42.164 45.695 41.9465 46.0736C41.729 46.4522 41.6203 46.8831 41.6203 47.3664C41.6203 47.8578 41.729 48.2968 41.9465 48.6834C42.164 49.0701 42.458 49.3761 42.8285 49.6017C43.2071 49.8272 43.63 49.94 44.0972 49.94ZM52.0141 52.6585C51.4824 52.6585 50.9992 52.5578 50.5642 52.3565C50.1292 52.1551 49.7788 51.8651 49.513 51.4865L49.7426 51.257C49.9601 51.5711 50.2662 51.8248 50.6608 52.0182C51.0555 52.2115 51.5106 52.3081 52.0262 52.3081C52.7994 52.3081 53.4116 52.0947 53.8627 51.6678C54.3218 51.2489 54.5514 50.681 54.5514 49.9642V48.5505L54.6601 47.2456L54.5514 45.977V44.6116H54.9259V49.9642C54.9259 50.5038 54.8051 50.9751 54.5635 51.3778C54.3218 51.7805 53.9795 52.0947 53.5365 52.3202C53.1015 52.5458 52.594 52.6585 52.0141 52.6585ZM52.1953 50.1696C51.6556 50.1696 51.1723 50.0487 50.7454 49.8071C50.3266 49.5574 49.9923 49.2191 49.7426 48.7922C49.5009 48.3652 49.3801 47.8779 49.3801 47.3302C49.3801 46.7905 49.5009 46.3072 49.7426 45.8803C49.9842 45.4534 50.3145 45.1151 50.7333 44.8654C51.1603 44.6157 51.6395 44.4908 52.1711 44.4908C52.5981 44.4908 52.9847 44.5714 53.3311 44.7325C53.6855 44.8855 53.9795 45.107 54.2131 45.397C54.4547 45.687 54.6199 46.0333 54.7085 46.4361V48.2364C54.6118 48.6311 54.4426 48.9734 54.201 49.2634C53.9674 49.5534 53.6774 49.7789 53.3311 49.94C52.9928 50.093 52.6142 50.1696 52.1953 50.1696ZM52.2436 49.8192C52.7028 49.8192 53.1055 49.7185 53.4519 49.5171C53.8063 49.3077 54.0802 49.0177 54.2735 48.6472C54.4668 48.2686 54.5635 47.8296 54.5635 47.3302C54.5635 46.8388 54.4628 46.4079 54.2614 46.0374C54.0681 45.6668 53.7942 45.3769 53.4398 45.1674C53.0934 44.9499 52.6867 44.8412 52.2195 44.8412C51.7442 44.8412 51.3214 44.9499 50.9508 45.1674C50.5803 45.3769 50.2903 45.6668 50.0809 46.0374C49.8715 46.4079 49.7667 46.8348 49.7667 47.3181C49.7667 47.8014 49.8715 48.2323 50.0809 48.6109C50.2984 48.9895 50.5924 49.2875 50.9629 49.505C51.3334 49.7145 51.7603 49.8192 52.2436 49.8192ZM62.0465 47.306V46.9435H65.6592V47.306H62.0465ZM77.0157 50.1696V42.0018H77.4024V50.1696H77.0157ZM77.2332 50.1696V49.8192H82.2716V50.1696H77.2332ZM77.2332 46.1461V45.8078H81.9091V46.1461H77.2332ZM77.2332 42.3522V42.0018H82.1991V42.3522H77.2332ZM87.2159 52.6585C86.6843 52.6585 86.201 52.5578 85.766 52.3565C85.3311 52.1551 84.9807 51.8651 84.7149 51.4865L84.9444 51.257C85.1619 51.5711 85.468 51.8248 85.8627 52.0182C86.2574 52.2115 86.7125 52.3081 87.228 52.3081C88.0013 52.3081 88.6135 52.0947 89.0645 51.6678C89.5237 51.2489 89.7532 50.681 89.7532 49.9642V48.5505L89.862 47.2456L89.7532 45.977V44.6116H90.1278V49.9642C90.1278 50.5038 90.007 50.9751 89.7653 51.3778C89.5237 51.7805 89.1813 52.0947 88.7383 52.3202C88.3033 52.5458 87.7959 52.6585 87.2159 52.6585ZM87.3972 50.1696C86.8575 50.1696 86.3742 50.0487 85.9473 49.8071C85.5284 49.5574 85.1941 49.2191 84.9444 48.7922C84.7028 48.3652 84.582 47.8779 84.582 47.3302C84.582 46.7905 84.7028 46.3072 84.9444 45.8803C85.1861 45.4534 85.5163 45.1151 85.9352 44.8654C86.3621 44.6157 86.8414 44.4908 87.373 44.4908C87.7999 44.4908 88.1866 44.5714 88.5329 44.7325C88.8873 44.8855 89.1813 45.107 89.4149 45.397C89.6566 45.687 89.8217 46.0333 89.9103 46.4361V48.2364C89.8137 48.6311 89.6445 48.9734 89.4028 49.2634C89.1693 49.5534 88.8793 49.7789 88.5329 49.94C88.1946 50.093 87.816 50.1696 87.3972 50.1696ZM87.4455 49.8192C87.9046 49.8192 88.3074 49.7185 88.6537 49.5171C89.0082 49.3077 89.282 49.0177 89.4753 48.6472C89.6687 48.2686 89.7653 47.8296 89.7653 47.3302C89.7653 46.8388 89.6646 46.4079 89.4633 46.0374C89.2699 45.6668 88.9961 45.3769 88.6417 45.1674C88.2953 44.9499 87.8885 44.8412 87.4213 44.8412C86.9461 44.8412 86.5232 44.9499 86.1527 45.1674C85.7822 45.3769 85.4922 45.6668 85.2827 46.0374C85.0733 46.4079 84.9686 46.8348 84.9686 47.3181C84.9686 47.8014 85.0733 48.2323 85.2827 48.6109C85.5002 48.9895 85.7942 49.2875 86.1648 49.505C86.5353 49.7145 86.9622 49.8192 87.4455 49.8192ZM89.4753 42.0743C89.4753 42.4207 89.3948 42.7348 89.2337 43.0168C89.0807 43.2987 88.8672 43.5202 88.5933 43.6813C88.3275 43.8424 88.0174 43.9229 87.663 43.9229C87.3005 43.9229 86.9783 43.8424 86.6964 43.6813C86.4145 43.5202 86.193 43.2987 86.0319 43.0168C85.8788 42.7348 85.8023 42.4207 85.8023 42.0743H86.1527C86.1527 42.5174 86.2896 42.8839 86.5635 43.1738C86.8454 43.4638 87.22 43.6088 87.6871 43.6088C87.953 43.6088 88.1946 43.5444 88.4121 43.4155C88.6376 43.2785 88.8148 43.0933 88.9437 42.8597C89.0726 42.6261 89.137 42.3643 89.137 42.0743H89.4753ZM93.2555 50.1696V44.6116H93.6301V50.1696H93.2555ZM93.4368 43.2222C93.3321 43.2222 93.2435 43.1819 93.171 43.1013C93.0985 43.0208 93.0622 42.9282 93.0622 42.8234C93.0622 42.7107 93.0985 42.618 93.171 42.5455C93.2435 42.4731 93.3321 42.4368 93.4368 42.4368C93.5495 42.4368 93.6422 42.4731 93.7147 42.5455C93.7952 42.618 93.8355 42.7107 93.8355 42.8234C93.8355 42.9282 93.7952 43.0208 93.7147 43.1013C93.6422 43.1819 93.5495 43.2222 93.4368 43.2222ZM97.6703 50.1696V42.2435H98.0448V50.1696H97.6703ZM96.1962 44.9379V44.6116H99.5068V44.9379H96.1962ZM102.055 50.1696V44.6116H102.43V50.1696H102.055ZM102.237 43.2222C102.132 43.2222 102.043 43.1819 101.971 43.1013C101.898 43.0208 101.862 42.9282 101.862 42.8234C101.862 42.7107 101.898 42.618 101.971 42.5455C102.043 42.4731 102.132 42.4368 102.237 42.4368C102.349 42.4368 102.442 42.4731 102.515 42.5455C102.595 42.618 102.635 42.7107 102.635 42.8234C102.635 42.9282 102.595 43.0208 102.515 43.1013C102.442 43.1819 102.349 43.2222 102.237 43.2222ZM105.588 50.1696V44.6116H105.963V50.1696H105.588ZM109.551 50.1696V46.6657C109.551 46.1179 109.39 45.6749 109.068 45.3366C108.746 44.9983 108.331 44.8291 107.823 44.8291C107.485 44.8291 107.175 44.9056 106.893 45.0587C106.611 45.2117 106.386 45.4252 106.216 45.6991C106.047 45.9649 105.963 46.279 105.963 46.6415L105.709 46.6294C105.709 46.2025 105.802 45.8279 105.987 45.5057C106.18 45.1835 106.438 44.9338 106.76 44.7566C107.09 44.5794 107.457 44.4908 107.86 44.4908C108.254 44.4908 108.605 44.5794 108.911 44.7566C109.225 44.9338 109.471 45.1835 109.648 45.5057C109.833 45.8279 109.926 46.2065 109.926 46.6415V50.1696H109.551ZM113.514 50.1696V46.6657C113.514 46.1179 113.353 45.6749 113.031 45.3366C112.709 44.9983 112.294 44.8291 111.786 44.8291C111.448 44.8291 111.138 44.9056 110.856 45.0587C110.574 45.2117 110.349 45.4252 110.179 45.6991C110.01 45.9649 109.926 46.279 109.926 46.6415L109.672 46.6294C109.672 46.1944 109.769 45.8199 109.962 45.5057C110.155 45.1835 110.413 44.9338 110.735 44.7566C111.065 44.5794 111.428 44.4908 111.823 44.4908C112.217 44.4908 112.568 44.5794 112.874 44.7566C113.188 44.9338 113.434 45.1876 113.611 45.5178C113.796 45.84 113.889 46.2186 113.889 46.6536V50.1696H113.514ZM126.556 50.1696L121.384 45.9165L126.447 42.0018H127.039L121.807 46.0374V45.7836L127.16 50.1696H126.556ZM121.131 50.1696V42.0018H121.517V50.1696H121.131ZM131.678 50.2904C131.139 50.2904 130.651 50.1615 130.216 49.9037C129.789 49.646 129.447 49.2956 129.189 48.8526C128.94 48.4095 128.815 47.9142 128.815 47.3664C128.815 46.8268 128.94 46.3394 129.189 45.9045C129.447 45.4695 129.789 45.1272 130.216 44.8775C130.651 44.6197 131.139 44.4908 131.678 44.4908C132.21 44.4908 132.689 44.6197 133.116 44.8775C133.551 45.1272 133.893 45.4695 134.143 45.9045C134.401 46.3394 134.53 46.8268 134.53 47.3664C134.53 47.9222 134.401 48.4216 134.143 48.8647C133.893 49.2996 133.551 49.646 133.116 49.9037C132.689 50.1615 132.21 50.2904 131.678 50.2904ZM131.678 49.94C132.145 49.94 132.564 49.8272 132.935 49.6017C133.305 49.3761 133.599 49.0701 133.817 48.6834C134.034 48.2887 134.143 47.8457 134.143 47.3544C134.143 46.8791 134.034 46.4522 133.817 46.0736C133.599 45.695 133.305 45.397 132.935 45.1795C132.564 44.954 132.145 44.8412 131.678 44.8412C131.211 44.8412 130.788 44.954 130.41 45.1795C130.039 45.397 129.745 45.695 129.528 46.0736C129.31 46.4522 129.201 46.8831 129.201 47.3664C129.201 47.8578 129.31 48.2968 129.528 48.6834C129.745 49.0701 130.039 49.3761 130.41 49.6017C130.788 49.8272 131.211 49.94 131.678 49.94ZM139.813 50.2904C139.273 50.2904 138.786 50.1615 138.351 49.9037C137.924 49.646 137.581 49.2956 137.324 48.8526C137.074 48.4095 136.949 47.9142 136.949 47.3664C136.949 46.8268 137.074 46.3394 137.324 45.9045C137.581 45.4695 137.924 45.1272 138.351 44.8775C138.786 44.6197 139.273 44.4908 139.813 44.4908C140.215 44.4908 140.59 44.5673 140.936 44.7204C141.291 44.8654 141.593 45.0708 141.842 45.3366L141.589 45.5903C141.371 45.3567 141.109 45.1755 140.803 45.0466C140.497 44.9097 140.167 44.8412 139.813 44.8412C139.345 44.8412 138.923 44.954 138.544 45.1795C138.173 45.397 137.879 45.695 137.662 46.0736C137.444 46.4522 137.336 46.8831 137.336 47.3664C137.336 47.8578 137.444 48.2968 137.662 48.6834C137.879 49.0701 138.173 49.3761 138.544 49.6017C138.923 49.8272 139.345 49.94 139.813 49.94C140.175 49.94 140.509 49.8756 140.815 49.7467C141.13 49.6097 141.399 49.4204 141.625 49.1788L141.879 49.4325C141.621 49.7064 141.311 49.9199 140.948 50.0729C140.594 50.2179 140.215 50.2904 139.813 50.2904ZM139.402 52.6585C139.168 52.6585 138.931 52.6142 138.689 52.5256C138.455 52.4451 138.246 52.3283 138.061 52.1752L138.375 51.9094C138.504 52.0302 138.657 52.1229 138.834 52.1873C139.011 52.2598 139.2 52.2961 139.402 52.2961C139.716 52.2961 139.958 52.2397 140.127 52.1269C140.304 52.0141 140.393 51.8571 140.393 51.6557C140.393 51.4543 140.296 51.2972 140.103 51.1845C139.917 51.0798 139.647 51.0274 139.293 51.0274H139.051L139.341 50.0729H139.764L139.511 50.9066L139.341 50.7012C139.817 50.7012 140.179 50.7858 140.429 50.9549C140.687 51.1241 140.815 51.3617 140.815 51.6678C140.815 51.9819 140.691 52.2236 140.441 52.3927C140.199 52.5699 139.853 52.6585 139.402 52.6585ZM146.629 50.2904C146.194 50.2904 145.803 50.1897 145.457 49.9883C145.118 49.7789 144.852 49.4929 144.659 49.1305C144.466 48.7599 144.369 48.333 144.369 47.8497V44.6116H144.744V47.8376C144.744 48.2485 144.82 48.615 144.973 48.9371C145.134 49.2513 145.356 49.501 145.638 49.6863C145.928 49.8635 146.258 49.9521 146.629 49.9521C147.192 49.9521 147.647 49.7547 147.994 49.36C148.34 48.9653 148.513 48.4579 148.513 47.8376V44.6116H148.888V47.8497C148.888 48.325 148.791 48.7479 148.598 49.1184C148.405 49.4889 148.139 49.7789 147.801 49.9883C147.462 50.1897 147.072 50.2904 146.629 50.2904Z" fill="black"/>
</svg>
