<svg width="178" height="41" viewBox="0 0 178 41" fill="none" xmlns="http://www.w3.org/2000/svg">
<g clip-path="url(#clip0_54_75)">
<path d="M27.9535 36.5675C27.4272 36.5675 26.9683 36.4663 26.577 36.2639C26.1856 36.0547 25.8516 35.7713 25.5749 35.4137L25.8077 35.191C26.0911 35.5756 26.4116 35.8523 26.7693 36.021C27.1269 36.1829 27.5284 36.2639 27.9737 36.2639C28.4731 36.2639 28.8813 36.1424 29.1984 35.8995C29.5156 35.6566 29.6742 35.3192 29.6742 34.8873C29.6742 34.5635 29.6067 34.3003 29.4717 34.0979C29.3435 33.8887 29.1715 33.72 28.9555 33.5918C28.7396 33.4636 28.5034 33.3522 28.247 33.2578C27.9906 33.1566 27.7342 33.0587 27.4778 32.9642C27.2214 32.863 26.9852 32.7416 26.7693 32.5999C26.5533 32.4514 26.3779 32.2659 26.2429 32.0432C26.1147 31.8138 26.0506 31.5236 26.0506 31.1727C26.0506 30.8421 26.1282 30.5553 26.2834 30.3124C26.4454 30.0627 26.6681 29.8704 26.9515 29.7355C27.2349 29.5938 27.5655 29.5229 27.9434 29.5229C28.382 29.5229 28.7733 29.6073 29.1175 29.776C29.4616 29.9446 29.7551 30.1876 29.998 30.5047L29.7653 30.7274C29.5358 30.4372 29.2727 30.2146 28.9758 30.0594C28.6856 29.9042 28.3415 29.8266 27.9434 29.8266C27.4845 29.8266 27.11 29.9446 26.8199 30.1808C26.5297 30.417 26.3847 30.7443 26.3847 31.1626C26.3847 31.4663 26.4488 31.7159 26.577 31.9116C26.7119 32.1005 26.8874 32.2591 27.1033 32.3873C27.3192 32.5088 27.5554 32.6167 27.8118 32.7112C28.0682 32.7989 28.3246 32.8934 28.581 32.9946C28.8374 33.0958 29.0736 33.2207 29.2895 33.3691C29.5055 33.5176 29.6775 33.7099 29.8057 33.946C29.9407 34.1755 30.0082 34.469 30.0082 34.8266C30.0082 35.4002 29.8226 35.8354 29.4515 36.1323C29.0871 36.4224 28.5878 36.5675 27.9535 36.5675ZM34.4519 36.5675C33.9998 36.5675 33.5916 36.4596 33.2272 36.2436C32.8696 36.0277 32.5828 35.7342 32.3669 35.3631C32.1577 34.9919 32.0531 34.577 32.0531 34.1181C32.0531 33.666 32.1577 33.2578 32.3669 32.8934C32.5828 32.529 32.8696 32.2422 33.2272 32.0331C33.5916 31.8171 33.9998 31.7092 34.4519 31.7092C34.8973 31.7092 35.2988 31.8171 35.6564 32.0331C36.0208 32.2422 36.3076 32.529 36.5167 32.8934C36.7327 33.2578 36.8406 33.666 36.8406 34.1181C36.8406 34.5837 36.7327 35.0021 36.5167 35.3732C36.3076 35.7376 36.0208 36.0277 35.6564 36.2436C35.2988 36.4596 34.8973 36.5675 34.4519 36.5675ZM34.4519 36.274C34.8433 36.274 35.1942 36.1795 35.5046 35.9906C35.815 35.8017 36.0613 35.5452 36.2434 35.2214C36.4256 34.8907 36.5167 34.5196 36.5167 34.108C36.5167 33.7099 36.4256 33.3522 36.2434 33.0351C36.0613 32.718 35.815 32.4683 35.5046 32.2861C35.1942 32.0972 34.8433 32.0027 34.4519 32.0027C34.0606 32.0027 33.7063 32.0972 33.3892 32.2861C33.0788 32.4683 32.8325 32.718 32.6503 33.0351C32.4681 33.3522 32.377 33.7132 32.377 34.1181C32.377 34.5297 32.4681 34.8975 32.6503 35.2214C32.8325 35.5452 33.0788 35.8017 33.3892 35.9906C33.7063 36.1795 34.0606 36.274 34.4519 36.274ZM40.5071 36.5675C40.2574 36.5675 40.0212 36.5338 39.7986 36.4663C39.5826 36.3921 39.387 36.2942 39.2115 36.1728C39.0361 36.0446 38.8809 35.8995 38.7459 35.7376L38.9585 35.5149C39.1609 35.778 39.3937 35.9737 39.6569 36.1019C39.92 36.2234 40.2068 36.2841 40.5172 36.2841C40.9018 36.2841 41.2088 36.2031 41.4383 36.0412C41.6677 35.8725 41.7824 35.6431 41.7824 35.3529C41.7824 35.0965 41.7149 34.8941 41.58 34.7456C41.4518 34.5972 41.2831 34.4825 41.0739 34.4015C40.8647 34.3205 40.642 34.2463 40.4059 34.1788C40.1764 34.1114 39.9571 34.0338 39.748 33.946C39.5388 33.8516 39.3667 33.7234 39.2318 33.5614C39.1036 33.3927 39.0395 33.1667 39.0395 32.8833C39.0395 32.6539 39.1002 32.4514 39.2216 32.276C39.3431 32.1005 39.5152 31.9622 39.7378 31.861C39.9605 31.7598 40.2237 31.7092 40.5273 31.7092C40.858 31.7092 41.1616 31.7699 41.4383 31.8914C41.7149 32.0061 41.9308 32.1748 42.086 32.3974L41.8735 32.61C41.7385 32.4211 41.5496 32.2726 41.3067 32.1646C41.0638 32.0499 40.7939 31.9926 40.497 31.9926C40.1191 31.9926 39.8323 32.0769 39.6366 32.2456C39.4409 32.4143 39.3431 32.6235 39.3431 32.8732C39.3431 33.1093 39.4072 33.2949 39.5354 33.4298C39.6704 33.5648 39.8424 33.6694 40.0516 33.7436C40.2608 33.8178 40.4801 33.8887 40.7095 33.9562C40.9457 34.0169 41.1684 34.0979 41.3775 34.1991C41.5867 34.2935 41.7554 34.4285 41.8836 34.6039C42.0186 34.7726 42.086 35.0088 42.086 35.3125C42.086 35.6971 41.941 36.0041 41.6508 36.2335C41.3674 36.4562 40.9862 36.5675 40.5071 36.5675ZM46.0232 36.4663L43.918 31.8104H44.2621L46.2054 36.1829H45.9726L48.0071 31.8104H48.3512L46.1447 36.4663H46.0232ZM44.8694 38.4501L45.9828 36.1627L46.1447 36.4663L45.2034 38.4501H44.8694ZM52.2457 36.5675C51.7936 36.5675 51.3854 36.4596 51.021 36.2436C50.6634 36.0277 50.3766 35.7342 50.1607 35.3631C49.9515 34.9919 49.8469 34.577 49.8469 34.1181C49.8469 33.666 49.9515 33.2578 50.1607 32.8934C50.3766 32.529 50.6634 32.2422 51.021 32.0331C51.3854 31.8171 51.7936 31.7092 52.2457 31.7092C52.6911 31.7092 53.0926 31.8171 53.4502 32.0331C53.8146 32.2422 54.1013 32.529 54.3105 32.8934C54.5264 33.2578 54.6344 33.666 54.6344 34.1181C54.6344 34.5837 54.5264 35.0021 54.3105 35.3732C54.1013 35.7376 53.8146 36.0277 53.4502 36.2436C53.0926 36.4596 52.6911 36.5675 52.2457 36.5675ZM52.2457 36.274C52.6371 36.274 52.988 36.1795 53.2984 35.9906C53.6088 35.8017 53.855 35.5452 54.0372 35.2214C54.2194 34.8907 54.3105 34.5196 54.3105 34.108C54.3105 33.7099 54.2194 33.3522 54.0372 33.0351C53.855 32.718 53.6088 32.4683 53.2984 32.2861C52.988 32.0972 52.6371 32.0027 52.2457 32.0027C51.8544 32.0027 51.5001 32.0972 51.183 32.2861C50.8726 32.4683 50.6263 32.718 50.4441 33.0351C50.2619 33.3522 50.1708 33.7132 50.1708 34.1181C50.1708 34.5297 50.2619 34.8975 50.4441 35.2214C50.6263 35.5452 50.8726 35.8017 51.183 35.9906C51.5001 36.1795 51.8544 36.274 52.2457 36.274ZM56.9648 36.4663V29.4217H57.2786V36.4663H56.9648ZM62.0095 36.5675C61.5574 36.5675 61.1491 36.4596 60.7848 36.2436C60.4271 36.0277 60.1404 35.7342 59.9244 35.3631C59.7152 34.9919 59.6107 34.577 59.6107 34.1181C59.6107 33.666 59.7152 33.2578 59.9244 32.8934C60.1404 32.529 60.4271 32.2422 60.7848 32.0331C61.1491 31.8171 61.5574 31.7092 62.0095 31.7092C62.4548 31.7092 62.8563 31.8171 63.2139 32.0331C63.5783 32.2422 63.8651 32.529 64.0743 32.8934C64.2902 33.2578 64.3982 33.666 64.3982 34.1181C64.3982 34.5837 64.2902 35.0021 64.0743 35.3732C63.8651 35.7376 63.5783 36.0277 63.2139 36.2436C62.8563 36.4596 62.4548 36.5675 62.0095 36.5675ZM62.0095 36.274C62.4008 36.274 62.7517 36.1795 63.0621 35.9906C63.3725 35.8017 63.6188 35.5452 63.801 35.2214C63.9832 34.8907 64.0743 34.5196 64.0743 34.108C64.0743 33.7099 63.9832 33.3522 63.801 33.0351C63.6188 32.718 63.3725 32.4683 63.0621 32.2861C62.7517 32.0972 62.4008 32.0027 62.0095 32.0027C61.6181 32.0027 61.2638 32.0972 60.9467 32.2861C60.6363 32.4683 60.39 32.718 60.2078 33.0351C60.0256 33.3522 59.9345 33.7132 59.9345 34.1181C59.9345 34.5297 60.0256 34.8975 60.2078 35.2214C60.39 35.5452 60.6363 35.8017 60.9467 35.9906C61.2638 36.1795 61.6181 36.274 62.0095 36.274ZM68.6415 38.5514C68.1962 38.5514 67.7913 38.467 67.427 38.2983C67.0626 38.1296 66.7691 37.8867 66.5464 37.5696L66.7387 37.3772C66.9209 37.6404 67.1773 37.853 67.5079 38.0149C67.8386 38.1769 68.2198 38.2578 68.6517 38.2578C69.2994 38.2578 69.8123 38.079 70.1901 37.7214C70.5748 37.3705 70.7671 36.8948 70.7671 36.2942V35.11L70.8582 34.0169L70.7671 32.9541V31.8104H71.0808V36.2942C71.0808 36.7463 70.9796 37.1411 70.7772 37.4785C70.5748 37.8159 70.288 38.079 69.9169 38.2679C69.5525 38.4569 69.1274 38.5514 68.6415 38.5514ZM68.7934 36.4663C68.3413 36.4663 67.9364 36.3651 67.5788 36.1627C67.2279 35.9535 66.9479 35.6701 66.7387 35.3125C66.5363 34.9548 66.435 34.5466 66.435 34.0877C66.435 33.6356 66.5363 33.2308 66.7387 32.8732C66.9411 32.5155 67.2178 32.2321 67.5687 32.0229C67.9263 31.8138 68.3278 31.7092 68.7731 31.7092C69.1308 31.7092 69.4546 31.7767 69.7448 31.9116C70.0417 32.0398 70.288 32.2254 70.4837 32.4683C70.6861 32.7112 70.8244 33.0014 70.8987 33.3387V34.8469C70.8177 35.1775 70.676 35.4643 70.4735 35.7072C70.2779 35.9501 70.0349 36.139 69.7448 36.274C69.4614 36.4022 69.1442 36.4663 68.7934 36.4663ZM68.8339 36.1728C69.2185 36.1728 69.5559 36.0884 69.846 35.9197C70.1429 35.7443 70.3723 35.5014 70.5343 35.191C70.6962 34.8738 70.7772 34.5061 70.7772 34.0877C70.7772 33.6761 70.6928 33.3151 70.5242 33.0047C70.3622 32.6943 70.1328 32.4514 69.8359 32.276C69.5457 32.0938 69.205 32.0027 68.8136 32.0027C68.4155 32.0027 68.0612 32.0938 67.7508 32.276C67.4405 32.4514 67.1975 32.6943 67.0221 33.0047C66.8467 33.3151 66.7589 33.6728 66.7589 34.0776C66.7589 34.4825 66.8467 34.8435 67.0221 35.1606C67.2043 35.4778 67.4506 35.7274 67.761 35.9096C68.0714 36.0851 68.429 36.1728 68.8339 36.1728ZM77.0458 34.0675V33.7639H80.0722V34.0675H77.0458ZM89.5857 36.4663V29.6241H89.9096V36.4663H89.5857ZM89.7679 36.4663V36.1728H93.9885V36.4663H89.7679ZM89.7679 33.0958V32.8124H93.6849V33.0958H89.7679ZM89.7679 29.9177V29.6241H93.9278V29.9177H89.7679ZM98.1305 38.5514C97.6851 38.5514 97.2803 38.467 96.9159 38.2983C96.5515 38.1296 96.258 37.8867 96.0353 37.5696L96.2276 37.3772C96.4098 37.6404 96.6662 37.853 96.9969 38.0149C97.3275 38.1769 97.7087 38.2578 98.1406 38.2578C98.7884 38.2578 99.3012 38.079 99.6791 37.7214C100.064 37.3705 100.256 36.8948 100.256 36.2942V35.11L100.347 34.0169L100.256 32.9541V31.8104H100.57V36.2942C100.57 36.7463 100.469 37.1411 100.266 37.4785C100.064 37.8159 99.7769 38.079 99.4058 38.2679C99.0414 38.4569 98.6163 38.5514 98.1305 38.5514ZM98.2823 36.4663C97.8302 36.4663 97.4253 36.3651 97.0677 36.1627C96.7168 35.9535 96.4368 35.6701 96.2276 35.3125C96.0252 34.9548 95.924 34.5466 95.924 34.0877C95.924 33.6356 96.0252 33.2308 96.2276 32.8732C96.4301 32.5155 96.7067 32.2321 97.0576 32.0229C97.4152 31.8138 97.8167 31.7092 98.2621 31.7092C98.6197 31.7092 98.9436 31.7767 99.2337 31.9116C99.5306 32.0398 99.7769 32.2254 99.9726 32.4683C100.175 32.7112 100.313 33.0014 100.388 33.3387V34.8469C100.307 35.1775 100.165 35.4643 99.9625 35.7072C99.7668 35.9501 99.5239 36.139 99.2337 36.274C98.9503 36.4022 98.6332 36.4663 98.2823 36.4663ZM98.3228 36.1728C98.7074 36.1728 99.0448 36.0884 99.3349 35.9197C99.6318 35.7443 99.8613 35.5014 100.023 35.191C100.185 34.8738 100.266 34.5061 100.266 34.0877C100.266 33.6761 100.182 33.3151 100.013 33.0047C99.8511 32.6943 99.6217 32.4514 99.3248 32.276C99.0347 32.0938 98.6939 32.0027 98.3025 32.0027C97.9044 32.0027 97.5502 32.0938 97.2398 32.276C96.9294 32.4514 96.6865 32.6943 96.511 33.0047C96.3356 33.3151 96.2479 33.6728 96.2479 34.0776C96.2479 34.4825 96.3356 34.8435 96.511 35.1606C96.6932 35.4778 96.9395 35.7274 97.2499 35.9096C97.5603 36.0851 97.9179 36.1728 98.3228 36.1728ZM100.023 29.6849C100.023 29.975 99.9557 30.2382 99.8208 30.4743C99.6926 30.7105 99.5138 30.8961 99.2843 31.031C99.0617 31.166 98.8019 31.2335 98.505 31.2335C98.2013 31.2335 97.9314 31.166 97.6952 31.031C97.4591 30.8961 97.2735 30.7105 97.1386 30.4743C97.0104 30.2382 96.9463 29.975 96.9463 29.6849H97.2398C97.2398 30.056 97.3545 30.363 97.5839 30.6059C97.8201 30.8488 98.1339 30.9703 98.5252 30.9703C98.7479 30.9703 98.9503 30.9163 99.1325 30.8084C99.3214 30.6936 99.4699 30.5384 99.5779 30.3428C99.6858 30.1471 99.7398 29.9278 99.7398 29.6849H100.023ZM103.19 36.4663V31.8104H103.504V36.4663H103.19ZM103.342 30.6464C103.254 30.6464 103.18 30.6127 103.119 30.5452C103.058 30.4777 103.028 30.4001 103.028 30.3124C103.028 30.2179 103.058 30.1403 103.119 30.0796C103.18 30.0189 103.254 29.9885 103.342 29.9885C103.436 29.9885 103.514 30.0189 103.575 30.0796C103.642 30.1403 103.676 30.2179 103.676 30.3124C103.676 30.4001 103.642 30.4777 103.575 30.5452C103.514 30.6127 103.436 30.6464 103.342 30.6464ZM106.888 36.4663V29.8266H107.202V36.4663H106.888ZM105.653 32.0837V31.8104H108.427V32.0837H105.653ZM110.562 36.4663V31.8104H110.875V36.4663H110.562ZM110.713 30.6464C110.626 30.6464 110.552 30.6127 110.491 30.5452C110.43 30.4777 110.4 30.4001 110.4 30.3124C110.4 30.2179 110.43 30.1403 110.491 30.0796C110.552 30.0189 110.626 29.9885 110.713 29.9885C110.808 29.9885 110.886 30.0189 110.946 30.0796C111.014 30.1403 111.047 30.2179 111.047 30.3124C111.047 30.4001 111.014 30.4777 110.946 30.5452C110.886 30.6127 110.808 30.6464 110.713 30.6464ZM113.521 36.4663V31.8104H113.835V36.4663H113.521ZM116.841 36.4663V33.5311C116.841 33.0722 116.706 32.7011 116.436 32.4177C116.166 32.1343 115.819 31.9926 115.394 31.9926C115.11 31.9926 114.85 32.0567 114.614 32.1849C114.378 32.3131 114.189 32.4919 114.047 32.7213C113.906 32.944 113.835 33.2072 113.835 33.5108L113.622 33.5007C113.622 33.1431 113.7 32.8293 113.855 32.5594C114.017 32.2895 114.233 32.0803 114.503 31.9318C114.779 31.7834 115.086 31.7092 115.424 31.7092C115.755 31.7092 116.048 31.7834 116.304 31.9318C116.568 32.0803 116.773 32.2895 116.922 32.5594C117.077 32.8293 117.155 33.1464 117.155 33.5108V36.4663H116.841ZM120.161 36.4663V33.5311C120.161 33.0722 120.026 32.7011 119.756 32.4177C119.486 32.1343 119.138 31.9926 118.713 31.9926C118.43 31.9926 118.17 32.0567 117.934 32.1849C117.698 32.3131 117.509 32.4919 117.367 32.7213C117.226 32.944 117.155 33.2072 117.155 33.5108L116.942 33.5007C116.942 33.1363 117.023 32.8225 117.185 32.5594C117.347 32.2895 117.563 32.0803 117.833 31.9318C118.109 31.7834 118.413 31.7092 118.744 31.7092C119.074 31.7092 119.368 31.7834 119.624 31.9318C119.887 32.0803 120.093 32.2929 120.242 32.5695C120.397 32.8394 120.475 33.1566 120.475 33.5209V36.4663H120.161ZM131.086 36.4663L126.754 32.9035L130.995 29.6241H131.491L127.108 33.0047V32.7922L131.592 36.4663H131.086ZM126.541 36.4663V29.6241H126.865V36.4663H126.541ZM135.377 36.5675C134.925 36.5675 134.517 36.4596 134.152 36.2436C133.795 36.0277 133.508 35.7342 133.292 35.3631C133.083 34.9919 132.978 34.577 132.978 34.1181C132.978 33.666 133.083 33.2578 133.292 32.8934C133.508 32.529 133.795 32.2422 134.152 32.0331C134.517 31.8171 134.925 31.7092 135.377 31.7092C135.822 31.7092 136.224 31.8171 136.581 32.0331C136.946 32.2422 137.233 32.529 137.442 32.8934C137.658 33.2578 137.766 33.666 137.766 34.1181C137.766 34.5837 137.658 35.0021 137.442 35.3732C137.233 35.7376 136.946 36.0277 136.581 36.2436C136.224 36.4596 135.822 36.5675 135.377 36.5675ZM135.377 36.274C135.768 36.274 136.119 36.1795 136.43 35.9906C136.74 35.8017 136.986 35.5452 137.168 35.2214C137.351 34.8907 137.442 34.5196 137.442 34.108C137.442 33.7099 137.351 33.3522 137.168 33.0351C136.986 32.718 136.74 32.4683 136.43 32.2861C136.119 32.0972 135.768 32.0027 135.377 32.0027C134.986 32.0027 134.631 32.0972 134.314 32.2861C134.004 32.4683 133.758 32.718 133.575 33.0351C133.393 33.3522 133.302 33.7132 133.302 34.1181C133.302 34.5297 133.393 34.8975 133.575 35.2214C133.758 35.5452 134.004 35.8017 134.314 35.9906C134.631 36.1795 134.986 36.274 135.377 36.274ZM142.191 36.5675C141.739 36.5675 141.331 36.4596 140.967 36.2436C140.609 36.0277 140.322 35.7342 140.106 35.3631C139.897 34.9919 139.792 34.577 139.792 34.1181C139.792 33.666 139.897 33.2578 140.106 32.8934C140.322 32.529 140.609 32.2422 140.967 32.0331C141.331 31.8171 141.739 31.7092 142.191 31.7092C142.529 31.7092 142.842 31.7733 143.133 31.9015C143.429 32.0229 143.682 32.195 143.892 32.4177L143.679 32.6302C143.497 32.4346 143.278 32.2827 143.021 32.1748C142.765 32.0601 142.488 32.0027 142.191 32.0027C141.8 32.0027 141.446 32.0972 141.128 32.2861C140.818 32.4683 140.572 32.718 140.39 33.0351C140.207 33.3522 140.116 33.7132 140.116 34.1181C140.116 34.5297 140.207 34.8975 140.39 35.2214C140.572 35.5452 140.818 35.8017 141.128 35.9906C141.446 36.1795 141.8 36.274 142.191 36.274C142.495 36.274 142.775 36.22 143.031 36.1121C143.294 35.9973 143.521 35.8388 143.709 35.6363L143.922 35.8489C143.706 36.0783 143.446 36.2571 143.143 36.3853C142.846 36.5068 142.529 36.5675 142.191 36.5675ZM141.847 38.5514C141.651 38.5514 141.452 38.5142 141.25 38.44C141.054 38.3725 140.879 38.2747 140.724 38.1465L140.987 37.9238C141.095 38.025 141.223 38.1026 141.371 38.1566C141.52 38.2173 141.678 38.2477 141.847 38.2477C142.11 38.2477 142.313 38.2005 142.454 38.106C142.603 38.0115 142.677 37.88 142.677 37.7113C142.677 37.5426 142.596 37.411 142.434 37.3165C142.279 37.2288 142.053 37.1849 141.756 37.1849H141.554L141.796 36.3853H142.151L141.938 37.0837L141.796 36.9117C142.195 36.9117 142.498 36.9825 142.707 37.1242C142.923 37.2659 143.031 37.465 143.031 37.7214C143.031 37.9845 142.927 38.187 142.718 38.3287C142.515 38.4771 142.225 38.5514 141.847 38.5514ZM147.901 36.5675C147.537 36.5675 147.209 36.4832 146.919 36.3145C146.636 36.139 146.413 35.8995 146.251 35.5959C146.089 35.2855 146.008 34.9278 146.008 34.523V31.8104H146.322V34.5128C146.322 34.857 146.386 35.164 146.514 35.4339C146.649 35.6971 146.835 35.9062 147.071 36.0614C147.314 36.2099 147.591 36.2841 147.901 36.2841C148.373 36.2841 148.755 36.1188 149.045 35.7882C149.335 35.4575 149.48 35.0324 149.48 34.5128V31.8104H149.794V34.523C149.794 34.9211 149.713 35.2753 149.551 35.5857C149.389 35.8961 149.166 36.139 148.883 36.3145C148.599 36.4832 148.272 36.5675 147.901 36.5675Z" fill="white"/>
<path d="M35.12 23.3471C33.7871 23.3471 32.3861 23.2188 30.9172 22.9622C29.4755 22.7271 28.2921 22.4384 27.3672 22.0963L27.8977 18.8893C28.9858 19.4238 30.1963 19.8621 31.5293 20.2042C32.8622 20.5249 34.1815 20.6853 35.4873 20.6853C37.1738 20.6853 38.4932 20.418 39.4453 19.8835C40.3974 19.3276 40.8734 18.5259 40.8734 17.4782C40.8734 16.7299 40.6422 16.0885 40.1797 15.554C39.7445 15.0195 39.1052 14.5492 38.262 14.1429C37.4187 13.7153 36.2353 13.2343 34.712 12.6998C32.9166 12.0584 31.4885 11.4704 30.4276 10.9359C29.3938 10.4014 28.5642 9.73864 27.9385 8.94758C27.3128 8.15651 27 7.17303 27 5.99712C27 4.79984 27.3944 3.75221 28.1833 2.85425C28.9722 1.9349 30.0739 1.22936 31.4885 0.737614C32.9302 0.245871 34.5624 0 36.385 0C37.7723 0 39.078 0.117591 40.3022 0.352773C41.5535 0.587954 42.6144 0.876585 43.4849 1.21867L43.0768 4.23326C40.819 3.18564 38.5204 2.66182 36.1809 2.66182C34.6032 2.66182 33.3654 2.91838 32.4678 3.43151C31.5701 3.94463 31.1212 4.7357 31.1212 5.8047C31.1212 6.53162 31.3524 7.14096 31.8149 7.6327C32.3045 8.10306 32.971 8.53066 33.8143 8.91551C34.6576 9.27897 35.9361 9.77071 37.6499 10.3907C40.2069 11.2887 42.0703 12.2615 43.2401 13.3091C44.4098 14.3354 44.9946 15.6289 44.9946 17.1896C44.9946 19.0924 44.1105 20.5997 42.3424 21.7115C40.5742 22.8019 38.1667 23.3471 35.12 23.3471Z" fill="white"/>
<path d="M63.3983 0.448982H67.1114V20.2363H78.0062V22.8981H63.3983V0.448982Z" fill="white"/>
<path d="M106.771 23.3471C104.132 23.3471 101.834 22.8767 99.875 21.936C97.9164 20.9739 96.393 19.6163 95.3049 17.8631C94.244 16.0885 93.7135 14.0254 93.7135 11.6735C93.7135 9.34311 94.2576 7.30131 95.3457 5.54814C96.461 3.77359 97.998 2.40526 99.9566 1.44316C101.915 0.481053 104.132 0 106.608 0C108.784 0 110.851 0.320702 112.81 0.962106L112.402 3.68807C110.661 3.00391 108.974 2.66182 107.342 2.66182C105.329 2.66182 103.602 3.05736 102.16 3.84842C100.745 4.63948 99.6709 5.71918 98.9365 7.08751C98.202 8.45583 97.8347 9.98451 97.8347 11.6735C97.8347 13.3626 98.202 14.8912 98.9365 16.2596C99.6709 17.6279 100.745 18.7076 102.16 19.4987C103.602 20.2897 105.343 20.6853 107.383 20.6853C109.151 20.6853 110.824 20.3646 112.402 19.7232L112.81 22.4491C111.069 23.0478 109.056 23.3471 106.771 23.3471Z" fill="white"/>
<path d="M131.27 0.448982H135.473L146.776 16.8689V0.448982H150.489V22.8981H147.021L134.983 5.54814V22.8981H131.27V0.448982Z" fill="white"/>
</g>
<defs>
<clipPath id="clip0_54_75">
<rect width="178" height="41" fill="white"/>
</clipPath>
</defs>
</svg>
