<svg width="250" height="90" viewBox="0 0 250 90" fill="none" xmlns="http://www.w3.org/2000/svg">
<path d="M5.58039 85.1958C4.56221 85.1958 3.67457 85 2.91747 84.6084C2.16036 84.2037 1.51421 83.6555 0.979015 82.9636L1.42936 82.5329C1.97761 83.2769 2.59765 83.8121 3.28949 84.1385C3.98133 84.4518 4.75801 84.6084 5.61955 84.6084C6.58551 84.6084 7.37525 84.3734 7.98876 83.9035C8.60228 83.4336 8.90904 82.7809 8.90904 81.9455C8.90904 81.3189 8.7785 80.8098 8.51743 80.4182C8.26942 80.0135 7.93655 79.6872 7.51884 79.4392C7.10112 79.1912 6.64425 78.9758 6.14822 78.793C5.65218 78.5972 5.15615 78.408 4.66011 78.2252C4.16408 78.0294 3.7072 77.7944 3.28949 77.5203C2.87178 77.2331 2.53239 76.8742 2.27132 76.4434C2.0233 75.9996 1.89929 75.4383 1.89929 74.7595C1.89929 74.1199 2.04941 73.5651 2.34964 73.0952C2.66292 72.6122 3.09369 72.2402 3.64194 71.9791C4.19019 71.705 4.82981 71.5679 5.56081 71.5679C6.40929 71.5679 7.16639 71.7311 7.83212 72.0574C8.49785 72.3838 9.06568 72.8537 9.53561 73.4672L9.08526 73.898C8.64144 73.3367 8.13235 72.9059 7.558 72.6057C6.9967 72.3054 6.33097 72.1553 5.56081 72.1553C4.67317 72.1553 3.94869 72.3838 3.38739 72.8406C2.82609 73.2975 2.54544 73.9306 2.54544 74.7399C2.54544 75.3273 2.66945 75.8103 2.91747 76.1889C3.17854 76.5544 3.51793 76.8611 3.93564 77.1091C4.35335 77.3441 4.81023 77.553 5.30626 77.7357C5.8023 77.9054 6.29833 78.0882 6.79437 78.284C7.2904 78.4798 7.74727 78.7212 8.16499 79.0084C8.5827 79.2956 8.91557 79.6676 9.16358 80.1245C9.42465 80.5683 9.55519 81.1362 9.55519 81.828C9.55519 82.9375 9.19622 83.7795 8.47827 84.3538C7.77338 84.9152 6.80742 85.1958 5.58039 85.1958ZM18.1517 85.1958C17.2771 85.1958 16.4874 84.9869 15.7825 84.5692C15.0907 84.1515 14.5359 83.5837 14.1182 82.8657C13.7135 82.1478 13.5112 81.345 13.5112 80.4574C13.5112 79.5828 13.7135 78.793 14.1182 78.0882C14.5359 77.3833 15.0907 76.8285 15.7825 76.4238C16.4874 76.0061 17.2771 75.7973 18.1517 75.7973C19.0132 75.7973 19.7899 76.0061 20.4818 76.4238C21.1867 76.8285 21.7414 77.3833 22.1461 78.0882C22.5638 78.793 22.7727 79.5828 22.7727 80.4574C22.7727 81.3581 22.5638 82.1674 22.1461 82.8853C21.7414 83.5902 21.1867 84.1515 20.4818 84.5692C19.7899 84.9869 19.0132 85.1958 18.1517 85.1958ZM18.1517 84.628C18.9088 84.628 19.5876 84.4452 20.1881 84.0797C20.7885 83.7142 21.265 83.2182 21.6174 82.5916C21.9699 81.952 22.1461 81.2341 22.1461 80.4378C22.1461 79.6676 21.9699 78.9758 21.6174 78.3623C21.265 77.7488 20.7885 77.2658 20.1881 76.9133C19.5876 76.5478 18.9088 76.3651 18.1517 76.3651C17.3946 76.3651 16.7093 76.5478 16.0958 76.9133C15.4953 77.2658 15.0189 77.7488 14.6664 78.3623C14.314 78.9758 14.1377 79.6742 14.1377 80.4574C14.1377 81.2536 14.314 81.9651 14.6664 82.5916C15.0189 83.2182 15.4953 83.7142 16.0958 84.0797C16.7093 84.4452 17.3946 84.628 18.1517 84.628ZM29.8655 85.1958C29.3825 85.1958 28.9256 85.1305 28.4948 85C28.0771 84.8564 27.6986 84.6671 27.3592 84.4322C27.0198 84.1842 26.7196 83.9035 26.4585 83.5902L26.8697 83.1595C27.2613 83.6685 27.7116 84.0471 28.2207 84.2951C28.7298 84.5301 29.2846 84.6476 29.885 84.6476C30.6291 84.6476 31.223 84.4909 31.6669 84.1776C32.1107 83.8513 32.3326 83.4075 32.3326 82.8462C32.3326 82.3501 32.2021 81.9585 31.941 81.6713C31.693 81.3842 31.3666 81.1623 30.962 81.0056C30.5573 80.849 30.1265 80.7054 29.6697 80.5749C29.2258 80.4443 28.8016 80.2942 28.3969 80.1245C27.9923 79.9418 27.6594 79.6937 27.3984 79.3805C27.1503 79.0541 27.0263 78.6168 27.0263 78.0686C27.0263 77.6248 27.1438 77.2331 27.3788 76.8938C27.6137 76.5544 27.9466 76.2868 28.3774 76.091C28.8081 75.8952 29.3172 75.7973 29.9046 75.7973C30.5443 75.7973 31.1317 75.9147 31.6669 76.1497C32.2021 76.3716 32.6198 76.698 32.92 77.1287L32.5088 77.5399C32.2477 77.1744 31.8822 76.8872 31.4123 76.6784C30.9424 76.4565 30.4202 76.3455 29.8459 76.3455C29.1149 76.3455 28.5601 76.5087 28.1816 76.835C27.803 77.1614 27.6137 77.566 27.6137 78.049C27.6137 78.5059 27.7377 78.8648 27.9858 79.1259C28.2468 79.387 28.5797 79.5893 28.9844 79.7329C29.389 79.8765 29.8133 80.0135 30.2571 80.1441C30.7139 80.2616 31.1447 80.4182 31.5494 80.614C31.954 80.7968 32.2804 81.0578 32.5284 81.3972C32.7895 81.7236 32.92 82.1804 32.92 82.7678C32.92 83.5119 32.6393 84.1058 32.078 84.5497C31.5298 84.9804 30.7923 85.1958 29.8655 85.1958ZM40.5366 85L36.4639 75.9931H37.1296L40.889 84.4518H40.4387L44.3743 75.9931H45.0401L40.7715 85H40.5366ZM38.3044 88.8377L40.4583 84.4126L40.7715 85L38.9506 88.8377H38.3044ZM52.574 85.1958C51.6994 85.1958 50.9097 84.9869 50.2048 84.5692C49.513 84.1515 48.9582 83.5837 48.5405 82.8657C48.1358 82.1478 47.9335 81.345 47.9335 80.4574C47.9335 79.5828 48.1358 78.793 48.5405 78.0882C48.9582 77.3833 49.513 76.8285 50.2048 76.4238C50.9097 76.0061 51.6994 75.7973 52.574 75.7973C53.4356 75.7973 54.2122 76.0061 54.9041 76.4238C55.609 76.8285 56.1638 77.3833 56.5684 78.0882C56.9861 78.793 57.195 79.5828 57.195 80.4574C57.195 81.3581 56.9861 82.1674 56.5684 82.8853C56.1638 83.5902 55.609 84.1515 54.9041 84.5692C54.2122 84.9869 53.4356 85.1958 52.574 85.1958ZM52.574 84.628C53.3311 84.628 54.0099 84.4452 54.6104 84.0797C55.2108 83.7142 55.6873 83.2182 56.0397 82.5916C56.3922 81.952 56.5684 81.2341 56.5684 80.4378C56.5684 79.6676 56.3922 78.9758 56.0397 78.3623C55.6873 77.7488 55.2108 77.2658 54.6104 76.9133C54.0099 76.5478 53.3311 76.3651 52.574 76.3651C51.8169 76.3651 51.1316 76.5478 50.5181 76.9133C49.9176 77.2658 49.4412 77.7488 49.0887 78.3623C48.7363 78.9758 48.5601 79.6742 48.5601 80.4574C48.5601 81.2536 48.7363 81.9651 49.0887 82.5916C49.4412 83.2182 49.9176 83.7142 50.5181 84.0797C51.1316 84.4452 51.8169 84.628 52.574 84.628ZM61.7032 85V71.3721H62.3102V85H61.7032ZM71.4621 85.1958C70.5876 85.1958 69.7978 84.9869 69.0929 84.5692C68.4011 84.1515 67.8463 83.5837 67.4286 82.8657C67.0239 82.1478 66.8216 81.345 66.8216 80.4574C66.8216 79.5828 67.0239 78.793 67.4286 78.0882C67.8463 77.3833 68.4011 76.8285 69.0929 76.4238C69.7978 76.0061 70.5876 75.7973 71.4621 75.7973C72.3237 75.7973 73.1004 76.0061 73.7922 76.4238C74.4971 76.8285 75.0519 77.3833 75.4565 78.0882C75.8742 78.793 76.0831 79.5828 76.0831 80.4574C76.0831 81.3581 75.8742 82.1674 75.4565 82.8853C75.0519 83.5902 74.4971 84.1515 73.7922 84.5692C73.1004 84.9869 72.3237 85.1958 71.4621 85.1958ZM71.4621 84.628C72.2192 84.628 72.898 84.4452 73.4985 84.0797C74.099 83.7142 74.5754 83.2182 74.9279 82.5916C75.2803 81.952 75.4565 81.2341 75.4565 80.4378C75.4565 79.6676 75.2803 78.9758 74.9279 78.3623C74.5754 77.7488 74.099 77.2658 73.4985 76.9133C72.898 76.5478 72.2192 76.3651 71.4621 76.3651C70.705 76.3651 70.0197 76.5478 69.4062 76.9133C68.8057 77.2658 68.3293 77.7488 67.9768 78.3623C67.6244 78.9758 67.4482 79.6742 67.4482 80.4574C67.4482 81.2536 67.6244 81.9651 67.9768 82.5916C68.3293 83.2182 68.8057 83.7142 69.4062 84.0797C70.0197 84.4452 70.705 84.628 71.4621 84.628ZM84.292 89.0335C83.4304 89.0335 82.6472 88.8704 81.9423 88.544C81.2375 88.2177 80.6696 87.7478 80.2389 87.1343L80.6109 86.7622C80.9633 87.2713 81.4594 87.6825 82.099 87.9958C82.7386 88.3091 83.4761 88.4657 84.3116 88.4657C85.5647 88.4657 86.5568 88.1198 87.2878 87.428C88.0318 86.7492 88.4038 85.8289 88.4038 84.6671V82.3762L88.5801 80.2616L88.4038 78.2056V75.9931H89.0108V84.6671C89.0108 85.5417 88.815 86.3054 88.4234 86.958C88.0318 87.6107 87.477 88.1198 86.7591 88.4853C86.0542 88.8508 85.2318 89.0335 84.292 89.0335ZM84.5857 85C83.7111 85 82.9279 84.8042 82.236 84.4126C81.5573 84.0079 81.0155 83.4597 80.6109 82.7678C80.2193 82.076 80.0235 81.2863 80.0235 80.3986C80.0235 79.524 80.2193 78.7408 80.6109 78.049C81.0025 77.3572 81.5377 76.8089 82.2165 76.4042C82.9083 75.9996 83.685 75.7973 84.5465 75.7973C85.2384 75.7973 85.8649 75.9278 86.4262 76.1889C87.0006 76.4369 87.477 76.7959 87.8556 77.2658C88.2472 77.7357 88.5148 78.297 88.6584 78.9497V81.8672C88.5017 82.5068 88.2276 83.0615 87.836 83.5315C87.4575 84.0014 86.9875 84.3669 86.4262 84.628C85.878 84.876 85.2645 85 84.5857 85ZM84.664 84.4322C85.4081 84.4322 86.0607 84.269 86.622 83.9427C87.1964 83.6033 87.6402 83.1333 87.9535 82.5329C88.2668 81.9194 88.4234 81.2079 88.4234 80.3986C88.4234 79.6024 88.2603 78.904 87.9339 78.3035C87.6206 77.7031 87.1768 77.2331 86.6025 76.8938C86.0412 76.5413 85.382 76.3651 84.6248 76.3651C83.8547 76.3651 83.1694 76.5413 82.5689 76.8938C81.9685 77.2331 81.4985 77.7031 81.1591 78.3035C80.8197 78.904 80.65 79.5958 80.65 80.379C80.65 81.1623 80.8197 81.8606 81.1591 82.4741C81.5116 83.0877 81.988 83.5706 82.5885 83.9231C83.189 84.2625 83.8808 84.4322 84.664 84.4322ZM100.55 80.3595V79.7721H106.405V80.3595H100.55ZM124.809 85V71.7637H125.435V85H124.809ZM125.161 85V84.4322H133.326V85H125.161ZM125.161 78.4798V77.9315H132.739V78.4798H125.161ZM125.161 72.3315V71.7637H133.209V72.3315H125.161ZM141.339 89.0335C140.477 89.0335 139.694 88.8704 138.989 88.544C138.284 88.2177 137.716 87.7478 137.286 87.1343L137.658 86.7622C138.01 87.2713 138.506 87.6825 139.146 87.9958C139.785 88.3091 140.523 88.4657 141.358 88.4657C142.611 88.4657 143.604 88.1198 144.335 87.428C145.079 86.7492 145.451 85.8289 145.451 84.6671V82.3762L145.627 80.2616L145.451 78.2056V75.9931H146.058V84.6671C146.058 85.5417 145.862 86.3054 145.47 86.958C145.079 87.6107 144.524 88.1198 143.806 88.4853C143.101 88.8508 142.279 89.0335 141.339 89.0335ZM141.632 85C140.758 85 139.975 84.8042 139.283 84.4126C138.604 84.0079 138.062 83.4597 137.658 82.7678C137.266 82.076 137.07 81.2863 137.07 80.3986C137.07 79.524 137.266 78.7408 137.658 78.049C138.049 77.3572 138.584 76.8089 139.263 76.4042C139.955 75.9996 140.732 75.7973 141.593 75.7973C142.285 75.7973 142.912 75.9278 143.473 76.1889C144.047 76.4369 144.524 76.7959 144.902 77.2658C145.294 77.7357 145.562 78.297 145.705 78.9497V81.8672C145.549 82.5068 145.274 83.0615 144.883 83.5315C144.504 84.0014 144.034 84.3669 143.473 84.628C142.925 84.876 142.311 85 141.632 85ZM141.711 84.4322C142.455 84.4322 143.107 84.269 143.669 83.9427C144.243 83.6033 144.687 83.1333 145 82.5329C145.314 81.9194 145.47 81.2079 145.47 80.3986C145.47 79.6024 145.307 78.904 144.981 78.3035C144.667 77.7031 144.224 77.2331 143.649 76.8938C143.088 76.5413 142.429 76.3651 141.672 76.3651C140.901 76.3651 140.216 76.5413 139.616 76.8938C139.015 77.2331 138.545 77.7031 138.206 78.3035C137.867 78.904 137.697 79.5958 137.697 80.379C137.697 81.1623 137.867 81.8606 138.206 82.4741C138.558 83.0877 139.035 83.5706 139.635 83.9231C140.236 84.2625 140.928 84.4322 141.711 84.4322ZM145 71.8812C145 72.4425 144.87 72.9516 144.609 73.4085C144.361 73.8653 144.015 74.2243 143.571 74.4854C143.14 74.7464 142.638 74.877 142.063 74.877C141.476 74.877 140.954 74.7464 140.497 74.4854C140.04 74.2243 139.681 73.8653 139.42 73.4085C139.172 72.9516 139.048 72.4425 139.048 71.8812H139.616C139.616 72.5991 139.838 73.1931 140.281 73.663C140.738 74.1329 141.345 74.3679 142.102 74.3679C142.533 74.3679 142.925 74.2635 143.277 74.0546C143.643 73.8327 143.93 73.5325 144.139 73.1539C144.348 72.7754 144.452 72.3511 144.452 71.8812H145ZM151.126 85V75.9931H151.733V85H151.126ZM151.42 73.7413C151.25 73.7413 151.107 73.6761 150.989 73.5455C150.872 73.415 150.813 73.2649 150.813 73.0952C150.813 72.9124 150.872 72.7623 150.989 72.6448C151.107 72.5273 151.25 72.4686 151.42 72.4686C151.603 72.4686 151.753 72.5273 151.87 72.6448C152.001 72.7623 152.066 72.9124 152.066 73.0952C152.066 73.2649 152.001 73.415 151.87 73.5455C151.753 73.6761 151.603 73.7413 151.42 73.7413ZM158.281 85V72.1553H158.888V85H158.281ZM155.892 76.5217V75.9931H161.257V76.5217H155.892ZM165.387 85V75.9931H165.994V85H165.387ZM165.681 73.7413C165.511 73.7413 165.367 73.6761 165.25 73.5455C165.132 73.415 165.074 73.2649 165.074 73.0952C165.074 72.9124 165.132 72.7623 165.25 72.6448C165.367 72.5273 165.511 72.4686 165.681 72.4686C165.863 72.4686 166.014 72.5273 166.131 72.6448C166.262 72.7623 166.327 72.9124 166.327 73.0952C166.327 73.2649 166.262 73.415 166.131 73.5455C166.014 73.6761 165.863 73.7413 165.681 73.7413ZM171.112 85V75.9931H171.719V85H171.112ZM177.534 85V79.3217C177.534 78.4341 177.273 77.7161 176.751 77.1679C176.229 76.6196 175.557 76.3455 174.734 76.3455C174.186 76.3455 173.684 76.4695 173.227 76.7175C172.77 76.9655 172.404 77.3115 172.13 77.7553C171.856 78.1861 171.719 78.6951 171.719 79.2826L171.308 79.263C171.308 78.5711 171.458 77.9641 171.758 77.442C172.071 76.9199 172.489 76.5152 173.011 76.228C173.546 75.9408 174.14 75.7973 174.793 75.7973C175.433 75.7973 176.001 75.9408 176.497 76.228C177.006 76.5152 177.404 76.9199 177.691 77.442C177.991 77.9641 178.141 78.5777 178.141 79.2826V85H177.534ZM183.957 85V79.3217C183.957 78.4341 183.696 77.7161 183.173 77.1679C182.651 76.6196 181.979 76.3455 181.157 76.3455C180.608 76.3455 180.106 76.4695 179.649 76.7175C179.192 76.9655 178.827 77.3115 178.552 77.7553C178.278 78.1861 178.141 78.6951 178.141 79.2826L177.73 79.263C177.73 78.5581 177.887 77.9511 178.2 77.442C178.513 76.9199 178.931 76.5152 179.453 76.228C179.988 75.9408 180.576 75.7973 181.215 75.7973C181.855 75.7973 182.423 75.9408 182.919 76.228C183.428 76.5152 183.826 76.9264 184.113 77.4616C184.414 77.9837 184.564 78.5972 184.564 79.3021V85H183.957ZM205.091 85L196.711 78.1077L204.915 71.7637H205.875L197.396 78.3035V77.8923L206.07 85H205.091ZM196.3 85V71.7637H196.926V85H196.3ZM213.393 85.1958C212.518 85.1958 211.728 84.9869 211.023 84.5692C210.332 84.1515 209.777 83.5837 209.359 82.8657C208.954 82.1478 208.752 81.345 208.752 80.4574C208.752 79.5828 208.954 78.793 209.359 78.0882C209.777 77.3833 210.332 76.8285 211.023 76.4238C211.728 76.0061 212.518 75.7973 213.393 75.7973C214.254 75.7973 215.031 76.0061 215.723 76.4238C216.428 76.8285 216.982 77.3833 217.387 78.0882C217.805 78.793 218.014 79.5828 218.014 80.4574C218.014 81.3581 217.805 82.1674 217.387 82.8853C216.982 83.5902 216.428 84.1515 215.723 84.5692C215.031 84.9869 214.254 85.1958 213.393 85.1958ZM213.393 84.628C214.15 84.628 214.828 84.4452 215.429 84.0797C216.029 83.7142 216.506 83.2182 216.858 82.5916C217.211 81.952 217.387 81.2341 217.387 80.4378C217.387 79.6676 217.211 78.9758 216.858 78.3623C216.506 77.7488 216.029 77.2658 215.429 76.9133C214.828 76.5478 214.15 76.3651 213.393 76.3651C212.635 76.3651 211.95 76.5478 211.337 76.9133C210.736 77.2658 210.26 77.7488 209.907 78.3623C209.555 78.9758 209.379 79.6742 209.379 80.4574C209.379 81.2536 209.555 81.9651 209.907 82.5916C210.26 83.2182 210.736 83.7142 211.337 84.0797C211.95 84.4452 212.635 84.628 213.393 84.628ZM226.575 85.1958C225.7 85.1958 224.911 84.9869 224.206 84.5692C223.514 84.1515 222.959 83.5837 222.541 82.8657C222.137 82.1478 221.934 81.345 221.934 80.4574C221.934 79.5828 222.137 78.793 222.541 78.0882C222.959 77.3833 223.514 76.8285 224.206 76.4238C224.911 76.0061 225.7 75.7973 226.575 75.7973C227.228 75.7973 227.835 75.9213 228.396 76.1693C228.97 76.4042 229.46 76.7371 229.864 77.1679L229.453 77.5791C229.101 77.2005 228.676 76.9068 228.18 76.698C227.684 76.476 227.149 76.3651 226.575 76.3651C225.818 76.3651 225.132 76.5478 224.519 76.9133C223.918 77.2658 223.442 77.7488 223.09 78.3623C222.737 78.9758 222.561 79.6742 222.561 80.4574C222.561 81.2536 222.737 81.9651 223.09 82.5916C223.442 83.2182 223.918 83.7142 224.519 84.0797C225.132 84.4452 225.818 84.628 226.575 84.628C227.162 84.628 227.704 84.5235 228.2 84.3147C228.709 84.0928 229.146 83.786 229.512 83.3944L229.923 83.8056C229.505 84.2494 229.003 84.5953 228.415 84.8434C227.841 85.0783 227.228 85.1958 226.575 85.1958ZM225.909 89.0335C225.531 89.0335 225.145 88.9617 224.754 88.8182C224.375 88.6876 224.036 88.4983 223.736 88.2503L224.245 87.8196C224.454 88.0154 224.702 88.1655 224.989 88.2699C225.276 88.3874 225.583 88.4461 225.909 88.4461C226.418 88.4461 226.81 88.3548 227.084 88.172C227.371 87.9893 227.515 87.7347 227.515 87.4084C227.515 87.082 227.358 86.8275 227.045 86.6447C226.745 86.475 226.307 86.3902 225.733 86.3902H225.341L225.811 84.8434H226.497L226.085 86.1944L225.811 85.8615C226.581 85.8615 227.169 85.9986 227.573 86.2727C227.991 86.5468 228.2 86.9319 228.2 87.428C228.2 87.937 227.998 88.3287 227.593 88.6028C227.201 88.89 226.64 89.0335 225.909 89.0335ZM237.62 85.1958C236.916 85.1958 236.282 85.0326 235.721 84.7063C235.173 84.3669 234.742 83.9035 234.429 83.3161C234.116 82.7156 233.959 82.0238 233.959 81.2406V75.9931H234.566V81.221C234.566 81.8867 234.69 82.4807 234.938 83.0028C235.199 83.5119 235.558 83.9166 236.015 84.2168C236.485 84.504 237.02 84.6476 237.62 84.6476C238.534 84.6476 239.272 84.3277 239.833 83.6881C240.394 83.0485 240.675 82.2261 240.675 81.221V75.9931H241.282V81.2406C241.282 82.0107 241.125 82.6961 240.812 83.2965C240.499 83.897 240.068 84.3669 239.52 84.7063C238.971 85.0326 238.338 85.1958 237.62 85.1958Z" fill="white"/>
<path d="M23.4896 63.3837C20.1773 63.3837 16.6961 63.0656 13.0459 62.4296C9.4633 61.8465 6.52285 61.1309 4.22457 60.2828L5.5427 52.332C8.24656 53.6572 11.2546 54.7438 14.5668 55.5919C17.8791 56.3869 21.1575 56.7845 24.4021 56.7845C28.5931 56.7845 31.8715 56.1219 34.2374 54.7968C36.6033 53.4186 37.7862 51.4309 37.7862 48.8337C37.7862 46.9785 37.2117 45.3883 36.0625 44.0632C34.981 42.738 33.3925 41.5719 31.297 40.5648C29.2015 39.5047 26.261 38.3121 22.4756 36.9869C18.0143 35.3968 14.4654 33.9391 11.8292 32.614C9.26051 31.2889 7.19881 29.6457 5.64409 27.6845C4.08937 25.7233 3.31201 23.285 3.31201 20.3697C3.31201 17.4014 4.29216 14.8042 6.25246 12.5779C8.21276 10.2987 10.9504 8.54952 14.4654 7.3304C18.0481 6.11127 22.1038 5.50171 26.6328 5.50171C30.0802 5.50171 33.3249 5.79324 36.3667 6.3763C39.4762 6.95936 42.1124 7.67493 44.2755 8.52302L43.2616 15.9968C37.651 13.3995 31.9391 12.1009 26.1258 12.1009C22.2052 12.1009 19.1296 12.737 16.8989 14.0091C14.6682 15.2812 13.5529 17.2424 13.5529 19.8927C13.5529 21.6949 14.1275 23.2055 15.2766 24.4247C16.4933 25.5908 18.1494 26.6509 20.2449 27.605C22.3404 28.5061 25.5175 29.7252 29.7761 31.2624C36.1301 33.4886 40.7605 35.9003 43.6671 38.4976C46.5738 41.0419 48.0271 44.2487 48.0271 48.1181C48.0271 52.8356 45.8302 56.5725 41.4365 59.3287C37.0427 62.032 31.0604 63.3837 23.4896 63.3837Z" fill="#FFC400"/>
<path d="M71.4517 6.61482H80.6786V55.6714H107.751V62.2705H71.4517V6.61482Z" fill="white"/>
<path d="M156.922 63.3837C150.365 63.3837 144.653 62.2175 139.786 59.8853C134.919 57.5001 131.134 54.1342 128.43 49.7878C125.794 45.3883 124.476 40.2733 124.476 34.4427C124.476 28.6651 125.828 23.6031 128.531 19.2566C131.303 14.8572 135.122 11.4648 139.989 9.07958C144.856 6.69433 150.365 5.50171 156.516 5.50171C161.924 5.50171 167.061 6.29679 171.928 7.88696L170.914 14.6452C166.588 12.949 162.397 12.1009 158.341 12.1009C153.339 12.1009 149.047 13.0815 145.464 15.0427C141.949 17.0039 139.279 19.6807 137.454 23.073C135.629 26.4654 134.716 30.2553 134.716 34.4427C134.716 38.6301 135.629 42.42 137.454 45.8124C139.279 49.2047 141.949 51.8815 145.464 53.8427C149.047 55.8039 153.373 56.7845 158.443 56.7845C162.837 56.7845 166.994 55.9894 170.914 54.3992L171.928 61.1574C167.602 62.6416 162.6 63.3837 156.922 63.3837Z" fill="#FFC400"/>
<path d="M195.494 6.61482H205.938L234.024 47.323V6.61482H243.251V62.2705H234.632L204.721 19.2566V62.2705H195.494V6.61482Z" fill="white"/>
</svg>
